G04*
G04 #@! TF.GenerationSoftware,Altium Limited,Altium Designer,20.2.4 (192)*
G04*
G04 Layer_Physical_Order=1*
G04 Layer_Color=65535*
%FSLAX44Y44*%
%MOMM*%
G71*
G04*
G04 #@! TF.SameCoordinates,9262D3F7-DFB6-46AD-8F0E-08546F4AC646*
G04*
G04*
G04 #@! TF.FilePolarity,Positive*
G04*
G01*
G75*
%ADD11C,0.2000*%
%ADD16C,0.2500*%
%ADD17R,0.6096X0.4318*%
%ADD18R,1.0414X0.8890*%
%ADD19R,1.9050X0.6350*%
%ADD20R,0.4318X0.6096*%
%ADD21R,0.8890X1.0414*%
%ADD22C,0.5000*%
%ADD31R,0.4000X0.4000*%
%ADD32C,0.4000*%
%ADD33C,0.3000*%
%ADD34C,0.8000*%
%ADD35C,0.3500*%
%ADD36R,0.8000X0.4000*%
%ADD37C,1.6000*%
%ADD38C,1.2000*%
%ADD39C,0.8500*%
G36*
X195000Y504902D02*
X195000Y283161D01*
X190000D01*
Y276716D01*
X188000D01*
Y274716D01*
X180793D01*
Y270445D01*
X179793D01*
Y265785D01*
X179348Y263969D01*
X169241D01*
X168255Y264955D01*
X166601Y266060D01*
X165725Y266234D01*
X165725Y267525D01*
X164725Y269111D01*
X164725Y269525D01*
Y272050D01*
X153201D01*
X141675D01*
Y269111D01*
X140675Y267525D01*
X140675Y267289D01*
Y255175D01*
X140675D01*
Y254825D01*
X140675D01*
X140675Y242863D01*
X139505Y242072D01*
X138675Y242034D01*
X133088Y247621D01*
Y338652D01*
X133149D01*
Y339652D01*
X134611D01*
Y344700D01*
Y349748D01*
X133149D01*
Y350748D01*
X132952D01*
X132848Y351266D01*
Y358351D01*
Y368652D01*
X133149D01*
Y369652D01*
X134611D01*
Y374700D01*
Y379748D01*
X133149D01*
Y380748D01*
X132833D01*
Y391581D01*
X134548Y392291D01*
X136846Y394054D01*
X138609Y396352D01*
X139718Y399028D01*
X140096Y401900D01*
X139718Y404771D01*
X138609Y407447D01*
X136846Y409745D01*
X136061Y410347D01*
Y424000D01*
X135821Y425827D01*
X135115Y427530D01*
X133993Y428992D01*
X124061Y438924D01*
Y446252D01*
X124846Y446855D01*
X126609Y449152D01*
X127717Y451828D01*
X128095Y454700D01*
X127717Y457571D01*
X126609Y460247D01*
X124846Y462545D01*
X124061Y463147D01*
Y471000D01*
X123820Y472827D01*
X123115Y474530D01*
X121993Y475992D01*
X112993Y484992D01*
X111530Y486115D01*
X109828Y486820D01*
X108000Y487060D01*
X66000D01*
X64173Y486820D01*
X62470Y486115D01*
X61008Y484992D01*
X9508Y433493D01*
X8386Y432030D01*
X7680Y430327D01*
X7440Y428500D01*
Y123950D01*
X7680Y122123D01*
X8386Y120420D01*
X9508Y118958D01*
X18158Y110308D01*
X19620Y109186D01*
X21323Y108480D01*
X23150Y108240D01*
X28353D01*
X28955Y107455D01*
X31253Y105692D01*
X33929Y104583D01*
X36800Y104205D01*
X39672Y104583D01*
X42348Y105692D01*
X44646Y107455D01*
X46409Y109753D01*
X47517Y112429D01*
X47895Y115300D01*
X47517Y118172D01*
X46409Y120848D01*
X44646Y123145D01*
X42348Y124909D01*
X39672Y126017D01*
X36800Y126395D01*
X33929Y126017D01*
X31253Y124909D01*
X28955Y123145D01*
X28353Y122360D01*
X26075D01*
X21561Y126875D01*
Y425575D01*
X68925Y472940D01*
X105076D01*
X109940Y468075D01*
Y463147D01*
X109155Y462545D01*
X107392Y460247D01*
X106284Y457571D01*
X105906Y454700D01*
X106284Y451828D01*
X107392Y449152D01*
X109155Y446855D01*
X109940Y446252D01*
Y436000D01*
X110181Y434173D01*
X110886Y432470D01*
X112008Y431007D01*
X121940Y421075D01*
Y410347D01*
X121155Y409745D01*
X119392Y407447D01*
X118284Y404771D01*
X117906Y401900D01*
X118284Y399028D01*
X119392Y396352D01*
X121155Y394054D01*
X123147Y392526D01*
Y380748D01*
X122831D01*
Y368669D01*
X120752D01*
Y358351D01*
Y350731D01*
X121806D01*
X122091Y349299D01*
X122831Y348190D01*
Y338652D01*
X122893D01*
Y245510D01*
X123281Y243559D01*
X124386Y241905D01*
X133945Y232345D01*
X135599Y231240D01*
X137550Y230852D01*
X140675D01*
Y229775D01*
X165725D01*
Y240475D01*
X165725Y242125D01*
X166311Y243882D01*
X166601Y243940D01*
X168255Y245045D01*
X169241Y246031D01*
X179348D01*
X179793Y244215D01*
Y239555D01*
X180793D01*
Y235284D01*
X188000D01*
Y233284D01*
X190000D01*
Y226839D01*
X195000D01*
X195000Y5098D01*
X5098Y5098D01*
X5098Y504902D01*
X195000Y504902D01*
D02*
G37*
%LPC*%
G36*
X171800Y500325D02*
X168752Y500025D01*
X165821Y499136D01*
X163120Y497692D01*
X160752Y495748D01*
X158808Y493381D01*
X157365Y490679D01*
X156475Y487748D01*
X156175Y484700D01*
X156475Y481651D01*
X157365Y478720D01*
X158808Y476019D01*
X160752Y473651D01*
X163120Y471708D01*
X165821Y470264D01*
X168752Y469375D01*
X171800Y469075D01*
X174849Y469375D01*
X177780Y470264D01*
X180481Y471708D01*
X182849Y473651D01*
X184792Y476019D01*
X186236Y478720D01*
X187125Y481651D01*
X187426Y484700D01*
X187125Y487748D01*
X186236Y490679D01*
X184792Y493381D01*
X182849Y495748D01*
X180481Y497692D01*
X177780Y499136D01*
X174849Y500025D01*
X171800Y500325D01*
D02*
G37*
G36*
X91600Y465795D02*
X88729Y465417D01*
X86053Y464308D01*
X83755Y462545D01*
X81992Y460247D01*
X80884Y457571D01*
X80506Y454700D01*
X80635Y453719D01*
X73208Y446292D01*
X72086Y444830D01*
X71381Y443127D01*
X71140Y441300D01*
Y410347D01*
X70355Y409745D01*
X68592Y407447D01*
X67484Y404771D01*
X67106Y401900D01*
X67235Y400919D01*
X57508Y391192D01*
X56386Y389729D01*
X55680Y388027D01*
X55440Y386199D01*
Y362475D01*
X47658Y354692D01*
X46536Y353230D01*
X45916Y351733D01*
X44875Y351320D01*
X43765Y351161D01*
X41844Y352635D01*
X39411Y353643D01*
X38800Y353723D01*
Y343900D01*
Y334077D01*
X39411Y334157D01*
X41844Y335165D01*
X43590Y336505D01*
X44835Y336155D01*
X45590Y335643D01*
Y328142D01*
X43590Y327155D01*
X42348Y328108D01*
X39672Y329217D01*
X36800Y329595D01*
X33929Y329217D01*
X31253Y328108D01*
X28955Y326345D01*
X27192Y324048D01*
X26084Y321372D01*
X25705Y318500D01*
X26084Y315629D01*
X27192Y312953D01*
X28955Y310655D01*
X31253Y308892D01*
X33929Y307783D01*
X36800Y307405D01*
X39672Y307783D01*
X42348Y308892D01*
X43590Y309845D01*
X45590Y308858D01*
Y302742D01*
X43590Y301756D01*
X42348Y302708D01*
X39672Y303817D01*
X36800Y304195D01*
X33929Y303817D01*
X31253Y302708D01*
X28955Y300945D01*
X27192Y298647D01*
X26084Y295972D01*
X25705Y293100D01*
X26084Y290229D01*
X27192Y287553D01*
X28955Y285255D01*
X31253Y283492D01*
X33929Y282383D01*
X36800Y282005D01*
X38518Y282231D01*
X39453Y280337D01*
X37781Y278666D01*
X36800Y278795D01*
X33929Y278417D01*
X31253Y277309D01*
X28955Y275545D01*
X27192Y273248D01*
X26084Y270572D01*
X25705Y267700D01*
X26084Y264828D01*
X27192Y262153D01*
X28955Y259855D01*
X31253Y258092D01*
X33929Y256983D01*
X36800Y256605D01*
X39672Y256983D01*
X42348Y258092D01*
X44646Y259855D01*
X46409Y262153D01*
X47517Y264828D01*
X47895Y267700D01*
X47766Y268681D01*
X57643Y278557D01*
X58765Y280020D01*
X59470Y281723D01*
X59711Y283550D01*
Y346776D01*
X67493Y354557D01*
X68615Y356020D01*
X69320Y357723D01*
X69561Y359550D01*
Y383275D01*
X77220Y390934D01*
X78201Y390805D01*
X81072Y391183D01*
X83748Y392291D01*
X86046Y394054D01*
X87809Y396352D01*
X88918Y399028D01*
X89296Y401900D01*
X88918Y404771D01*
X87809Y407447D01*
X86046Y409745D01*
X85261Y410347D01*
Y438376D01*
X90620Y443734D01*
X91600Y443605D01*
X94472Y443983D01*
X97148Y445091D01*
X99446Y446855D01*
X101209Y449152D01*
X102317Y451828D01*
X102695Y454700D01*
X102317Y457571D01*
X101209Y460247D01*
X99446Y462545D01*
X97148Y464308D01*
X94472Y465417D01*
X91600Y465795D01*
D02*
G37*
G36*
X38800Y429923D02*
Y422100D01*
X46623D01*
X46543Y422710D01*
X45535Y425143D01*
X43932Y427232D01*
X41844Y428835D01*
X39411Y429843D01*
X38800Y429923D01*
D02*
G37*
G36*
X34801Y429923D02*
X34190Y429843D01*
X31757Y428835D01*
X29668Y427232D01*
X28066Y425143D01*
X27058Y422710D01*
X26977Y422100D01*
X34801D01*
Y429923D01*
D02*
G37*
G36*
X46623Y418100D02*
X38800D01*
Y410277D01*
X39411Y410357D01*
X41844Y411365D01*
X43932Y412968D01*
X45535Y415057D01*
X46543Y417490D01*
X46623Y418100D01*
D02*
G37*
G36*
X34801D02*
X26978D01*
X27058Y417490D01*
X28066Y415057D01*
X29668Y412968D01*
X31757Y411365D01*
X34190Y410357D01*
X34801Y410277D01*
Y418100D01*
D02*
G37*
G36*
X36800Y405795D02*
X33929Y405417D01*
X31253Y404309D01*
X28955Y402545D01*
X27192Y400247D01*
X26084Y397572D01*
X25705Y394700D01*
X26084Y391828D01*
X27192Y389153D01*
X28955Y386855D01*
X31253Y385092D01*
X33929Y383983D01*
X36800Y383605D01*
X39672Y383983D01*
X42348Y385092D01*
X44646Y386855D01*
X46409Y389153D01*
X47517Y391828D01*
X47895Y394700D01*
X47517Y397572D01*
X46409Y400247D01*
X44646Y402545D01*
X42348Y404309D01*
X39672Y405417D01*
X36800Y405795D01*
D02*
G37*
G36*
X87943Y381907D02*
X83497D01*
Y376700D01*
X87943D01*
Y381907D01*
D02*
G37*
G36*
X139769Y379748D02*
X136611D01*
Y375700D01*
X139769D01*
Y379748D01*
D02*
G37*
G36*
Y373700D02*
X136611D01*
Y369652D01*
X139769D01*
Y373700D01*
D02*
G37*
G36*
X87943Y372700D02*
X83497D01*
Y367493D01*
X87943D01*
Y372700D01*
D02*
G37*
G36*
X91990Y364748D02*
X88831D01*
Y360700D01*
X91990D01*
Y364748D01*
D02*
G37*
G36*
X36800Y380395D02*
X33929Y380017D01*
X31253Y378909D01*
X28955Y377145D01*
X27192Y374847D01*
X26084Y372172D01*
X25705Y369300D01*
X26084Y366428D01*
X27192Y363753D01*
X28955Y361455D01*
X31253Y359692D01*
X33929Y358583D01*
X36800Y358205D01*
X39672Y358583D01*
X42348Y359692D01*
X44646Y361455D01*
X46409Y363753D01*
X47517Y366428D01*
X47895Y369300D01*
X47517Y372172D01*
X46409Y374847D01*
X44646Y377145D01*
X42348Y378909D01*
X39672Y380017D01*
X36800Y380395D01*
D02*
G37*
G36*
X91990Y358700D02*
X88831D01*
Y354652D01*
X91990D01*
Y358700D01*
D02*
G37*
G36*
X34801Y353723D02*
X34190Y353643D01*
X31757Y352635D01*
X29668Y351032D01*
X28066Y348943D01*
X27058Y346511D01*
X26977Y345900D01*
X34801D01*
Y353723D01*
D02*
G37*
G36*
X139769Y349748D02*
X136611D01*
Y345700D01*
X139769D01*
Y349748D01*
D02*
G37*
G36*
Y343700D02*
X136611D01*
Y339652D01*
X139769D01*
Y343700D01*
D02*
G37*
G36*
X34801Y341900D02*
X26978D01*
X27058Y341289D01*
X28066Y338857D01*
X29668Y336768D01*
X31757Y335165D01*
X34190Y334157D01*
X34801Y334077D01*
Y341900D01*
D02*
G37*
G36*
X186000Y283161D02*
X180793D01*
Y278716D01*
X186000D01*
Y283161D01*
D02*
G37*
G36*
X164725Y279225D02*
X155201D01*
Y276050D01*
X164725D01*
Y279225D01*
D02*
G37*
G36*
X151201D02*
X141676D01*
Y276050D01*
X151201D01*
Y279225D01*
D02*
G37*
G36*
X38800Y252123D02*
Y244300D01*
X46623D01*
X46543Y244911D01*
X45535Y247343D01*
X43932Y249432D01*
X41844Y251035D01*
X39411Y252043D01*
X38800Y252123D01*
D02*
G37*
G36*
X34801Y252123D02*
X34190Y252043D01*
X31757Y251035D01*
X29668Y249432D01*
X28066Y247343D01*
X27058Y244911D01*
X26977Y244300D01*
X34801D01*
Y252123D01*
D02*
G37*
G36*
X46623Y240300D02*
X38800D01*
Y232477D01*
X39411Y232557D01*
X41844Y233565D01*
X43932Y235168D01*
X45535Y237257D01*
X46543Y239690D01*
X46623Y240300D01*
D02*
G37*
G36*
X34801D02*
X26978D01*
X27058Y239690D01*
X28066Y237257D01*
X29668Y235168D01*
X31757Y233565D01*
X34190Y232557D01*
X34801Y232477D01*
Y240300D01*
D02*
G37*
G36*
X186000Y231284D02*
X180793D01*
Y226839D01*
X186000D01*
Y231284D01*
D02*
G37*
G36*
X100469Y222798D02*
X97310D01*
Y218751D01*
X100469D01*
Y222798D01*
D02*
G37*
G36*
X103601Y412994D02*
X100729Y412617D01*
X98053Y411508D01*
X95755Y409745D01*
X93992Y407447D01*
X92884Y404771D01*
X92506Y401900D01*
X92884Y399028D01*
X93992Y396352D01*
X95755Y394054D01*
X96540Y393452D01*
Y382907D01*
X96213D01*
Y381907D01*
X91943D01*
Y374700D01*
Y367493D01*
X93142D01*
X94481Y365798D01*
X94523Y365520D01*
X93990Y364894D01*
Y359700D01*
Y354652D01*
X94064D01*
X94836Y352789D01*
X94349Y352108D01*
X91339Y349098D01*
X82350D01*
X80399Y348710D01*
X78745Y347605D01*
X71645Y340505D01*
X70540Y338851D01*
X70152Y336900D01*
Y325227D01*
X70079Y325171D01*
X68917Y323656D01*
X68187Y321893D01*
X67938Y320000D01*
X68187Y318107D01*
X68917Y316344D01*
X69202Y315972D01*
Y306151D01*
Y298531D01*
X71172D01*
Y295552D01*
X70711Y295361D01*
X68831Y293919D01*
X67389Y292039D01*
X66482Y289849D01*
X66173Y287500D01*
X66482Y285151D01*
X67389Y282961D01*
X67413Y282930D01*
X52866Y268384D01*
X51982Y267061D01*
X51672Y265500D01*
X51672Y265500D01*
Y237539D01*
X41141Y227008D01*
X39672Y227617D01*
X36800Y227995D01*
X33929Y227617D01*
X31253Y226509D01*
X28955Y224745D01*
X27192Y222447D01*
X26084Y219772D01*
X25705Y216900D01*
X26084Y214028D01*
X27192Y211353D01*
X28955Y209055D01*
X31253Y207292D01*
X33929Y206183D01*
X36800Y205805D01*
X39672Y206183D01*
X42348Y207292D01*
X44646Y209055D01*
X46409Y211353D01*
X47517Y214028D01*
X47895Y216900D01*
X47517Y219772D01*
X46909Y221241D01*
X58634Y232966D01*
X59518Y234289D01*
X59829Y235850D01*
X59829Y235850D01*
Y263811D01*
X67354Y271337D01*
X69202Y270571D01*
Y263651D01*
Y256031D01*
X71172D01*
Y248052D01*
X70711Y247861D01*
X68831Y246419D01*
X67389Y244539D01*
X66482Y242349D01*
X66173Y240000D01*
X66482Y237651D01*
X66673Y237190D01*
X59166Y229684D01*
X58282Y228361D01*
X57972Y226800D01*
X57972Y226800D01*
Y218439D01*
X41141Y201608D01*
X39672Y202217D01*
X36800Y202595D01*
X33929Y202217D01*
X31253Y201108D01*
X28955Y199345D01*
X27192Y197048D01*
X26084Y194372D01*
X25705Y191500D01*
X26084Y188629D01*
X27192Y185953D01*
X28955Y183655D01*
X31253Y181892D01*
X33929Y180783D01*
X36800Y180405D01*
X39672Y180783D01*
X42348Y181892D01*
X44646Y183655D01*
X46409Y185953D01*
X47517Y188629D01*
X47895Y191500D01*
X47517Y194372D01*
X46909Y195841D01*
X64934Y213866D01*
X64934Y213866D01*
X65818Y215189D01*
X66129Y216750D01*
Y225111D01*
X72440Y231422D01*
X72901Y231232D01*
X74486Y231023D01*
X75331Y230795D01*
X76422Y229059D01*
Y215105D01*
X75250Y214078D01*
X72901Y213768D01*
X70711Y212861D01*
X68831Y211419D01*
X67389Y209539D01*
X66482Y207349D01*
X66173Y205000D01*
X66482Y202651D01*
X67389Y200461D01*
X68831Y198581D01*
X69167Y198323D01*
X69341Y195669D01*
X68556Y194884D01*
X67672Y193561D01*
X67670Y193548D01*
X66281D01*
Y191578D01*
X58200D01*
X58200Y191578D01*
X56640Y191268D01*
X55317Y190384D01*
X55317Y190384D01*
X41141Y176208D01*
X39672Y176817D01*
X36800Y177195D01*
X33929Y176817D01*
X31253Y175709D01*
X28955Y173945D01*
X27192Y171647D01*
X26084Y168972D01*
X25705Y166100D01*
X26084Y163228D01*
X27192Y160553D01*
X28955Y158255D01*
X31253Y156492D01*
X33929Y155383D01*
X36800Y155005D01*
X39672Y155383D01*
X42348Y156492D01*
X44646Y158255D01*
X46409Y160553D01*
X47517Y163228D01*
X47895Y166100D01*
X47517Y168972D01*
X46909Y170441D01*
X59890Y183422D01*
X66281D01*
Y181452D01*
X84219D01*
Y182545D01*
X85451Y182790D01*
X87105Y183895D01*
X92295Y189085D01*
X93400Y190739D01*
X93788Y192690D01*
Y202036D01*
X94171Y202329D01*
X95333Y203844D01*
X96063Y205607D01*
X96313Y207500D01*
X96063Y209393D01*
X95521Y210702D01*
X96123Y212071D01*
X96667Y212702D01*
X100469D01*
Y216751D01*
X96310D01*
Y217751D01*
X95310D01*
Y222798D01*
X93849D01*
Y223798D01*
X93278D01*
Y226290D01*
X96764Y229775D01*
X114925D01*
Y242125D01*
X114925Y242125D01*
Y242475D01*
X114925D01*
X114925Y244125D01*
Y254825D01*
X114925D01*
Y255175D01*
X114925D01*
Y267525D01*
X114925Y267525D01*
Y267875D01*
X114925D01*
X114925Y269525D01*
Y280225D01*
X95543D01*
X85384Y290384D01*
X84061Y291268D01*
X83375Y291404D01*
X83112Y292039D01*
X81669Y293919D01*
X79789Y295361D01*
X79329Y295552D01*
Y298531D01*
X81298D01*
Y306151D01*
Y315972D01*
X81583Y316344D01*
X82314Y318107D01*
X82563Y320000D01*
X82314Y321893D01*
X81583Y323656D01*
X80421Y325171D01*
X80348Y325227D01*
Y334788D01*
X84462Y338902D01*
X93450D01*
X95401Y339290D01*
X97055Y340395D01*
X104215Y347555D01*
X105320Y349209D01*
X105708Y351160D01*
Y353652D01*
X105769D01*
Y362560D01*
X107263Y364053D01*
X108368Y365707D01*
X108525Y366493D01*
X111103D01*
Y382907D01*
X110661D01*
Y393452D01*
X111446Y394054D01*
X113209Y396352D01*
X114318Y399028D01*
X114696Y401900D01*
X114318Y404771D01*
X113209Y407447D01*
X111446Y409745D01*
X109148Y411508D01*
X106472Y412617D01*
X103601Y412994D01*
D02*
G37*
G36*
X38800Y150523D02*
Y142700D01*
X46623D01*
X46543Y143310D01*
X45535Y145743D01*
X43932Y147832D01*
X41844Y149435D01*
X39411Y150443D01*
X38800Y150523D01*
D02*
G37*
G36*
X34801Y150523D02*
X34190Y150443D01*
X31757Y149435D01*
X29668Y147832D01*
X28066Y145743D01*
X27058Y143310D01*
X26977Y142700D01*
X34801D01*
Y150523D01*
D02*
G37*
G36*
X46623Y138700D02*
X38800D01*
Y130877D01*
X39411Y130957D01*
X41844Y131965D01*
X43932Y133568D01*
X45535Y135657D01*
X46543Y138090D01*
X46623Y138700D01*
D02*
G37*
G36*
X34801D02*
X26978D01*
X27058Y138090D01*
X28066Y135657D01*
X29668Y133568D01*
X31757Y131965D01*
X34190Y130957D01*
X34801Y130877D01*
Y138700D01*
D02*
G37*
G36*
X36800Y100995D02*
X33929Y100617D01*
X31253Y99508D01*
X28955Y97745D01*
X27192Y95448D01*
X26084Y92772D01*
X25705Y89900D01*
X26084Y87029D01*
X27192Y84353D01*
X28955Y82055D01*
X31253Y80292D01*
X33929Y79183D01*
X36800Y78805D01*
X39672Y79183D01*
X42348Y80292D01*
X44646Y82055D01*
X46409Y84353D01*
X47517Y87029D01*
X47895Y89900D01*
X47517Y92772D01*
X46409Y95448D01*
X44646Y97745D01*
X42348Y99508D01*
X39672Y100617D01*
X36800Y100995D01*
D02*
G37*
G36*
X24300Y42825D02*
X21252Y42525D01*
X18321Y41636D01*
X15619Y40192D01*
X13252Y38249D01*
X11308Y35881D01*
X9865Y33179D01*
X8975Y30248D01*
X8675Y27200D01*
X8975Y24151D01*
X9865Y21220D01*
X11308Y18519D01*
X13252Y16151D01*
X15619Y14208D01*
X18321Y12764D01*
X21252Y11875D01*
X24300Y11575D01*
X27349Y11875D01*
X30280Y12764D01*
X32981Y14208D01*
X35349Y16151D01*
X37292Y18519D01*
X38736Y21220D01*
X39625Y24151D01*
X39926Y27200D01*
X39625Y30248D01*
X38736Y33179D01*
X37292Y35881D01*
X35349Y38249D01*
X32981Y40192D01*
X30280Y41636D01*
X27349Y42525D01*
X24300Y42825D01*
D02*
G37*
%LPD*%
D11*
X80500Y210250D02*
Y230500D01*
X86500Y236500D02*
Y244000D01*
X80500Y230500D02*
X86500Y236500D01*
X75250Y205000D02*
X80500Y210250D01*
X62050Y216750D02*
Y226800D01*
X75250Y240000D01*
X71440Y187500D02*
Y192000D01*
X75250Y195810D01*
Y205000D01*
X36800Y166100D02*
X58200Y187500D01*
X71440D01*
X75250Y287500D02*
X82500D01*
X95950Y274050D02*
X102401D01*
X82500Y287500D02*
X95950Y274050D01*
X75250Y285000D02*
Y303690D01*
X55750Y265500D02*
X75250Y285000D01*
X55750Y235850D02*
Y265500D01*
X36800Y216900D02*
X55750Y235850D01*
X75250Y240000D02*
Y261190D01*
X36800Y191500D02*
X62050Y216750D01*
X91150Y248650D02*
X102401D01*
X86500Y244000D02*
X91150Y248650D01*
X102240Y261190D02*
X102401Y261350D01*
X75250Y261190D02*
X102240D01*
X29997Y582496D02*
X27498Y584995D01*
X22499D01*
X20000Y582496D01*
Y579997D01*
X22499Y577498D01*
X27498D01*
X29997Y574998D01*
Y572499D01*
X27498Y570000D01*
X22499D01*
X20000Y572499D01*
X34995Y584995D02*
X44992D01*
X39994D01*
Y570000D01*
X59987D02*
X49990D01*
X59987Y579997D01*
Y582496D01*
X57488Y584995D01*
X52490D01*
X49990Y582496D01*
X74982Y584995D02*
X64985D01*
Y577498D01*
X69984Y579997D01*
X72483D01*
X74982Y577498D01*
Y572499D01*
X72483Y570000D01*
X67485D01*
X64985Y572499D01*
X79981Y584995D02*
Y570000D01*
X87478D01*
X89977Y572499D01*
Y582496D01*
X87478Y584995D01*
X79981D01*
X94976D02*
Y574998D01*
X99974Y570000D01*
X104972Y574998D01*
Y584995D01*
X119968Y582496D02*
X117469Y584995D01*
X112470D01*
X109971Y582496D01*
Y572499D01*
X112470Y570000D01*
X117469D01*
X119968Y572499D01*
X149958Y584995D02*
X139961D01*
Y570000D01*
X149958D01*
X139961Y577498D02*
X144960D01*
X154956Y584995D02*
Y574998D01*
X159955Y570000D01*
X164953Y574998D01*
Y584995D01*
X177449D02*
X172451D01*
X169951Y582496D01*
Y572499D01*
X172451Y570000D01*
X177449D01*
X179948Y572499D01*
Y582496D01*
X177449Y584995D01*
X199942D02*
Y570000D01*
X207439D01*
X209939Y572499D01*
Y582496D01*
X207439Y584995D01*
X199942D01*
X214937D02*
X219935D01*
X217436D01*
Y570000D01*
X214937D01*
X219935D01*
X237430Y582496D02*
X234930Y584995D01*
X229932D01*
X227433Y582496D01*
Y579997D01*
X229932Y577498D01*
X234930D01*
X237430Y574998D01*
Y572499D01*
X234930Y570000D01*
X229932D01*
X227433Y572499D01*
X252425Y582496D02*
X249926Y584995D01*
X244927D01*
X242428Y582496D01*
Y572499D01*
X244927Y570000D01*
X249926D01*
X252425Y572499D01*
X264921Y584995D02*
X259922D01*
X257423Y582496D01*
Y572499D01*
X259922Y570000D01*
X264921D01*
X267420Y572499D01*
Y582496D01*
X264921Y584995D01*
X272418D02*
Y574998D01*
X277417Y570000D01*
X282415Y574998D01*
Y584995D01*
X297410D02*
X287413D01*
Y570000D01*
X297410D01*
X287413Y577498D02*
X292412D01*
X302409Y570000D02*
Y584995D01*
X309906D01*
X312405Y582496D01*
Y577498D01*
X309906Y574998D01*
X302409D01*
X307407D02*
X312405Y570000D01*
X317404Y584995D02*
Y582496D01*
X322402Y577498D01*
X327401Y582496D01*
Y584995D01*
X322402Y577498D02*
Y570000D01*
X347394D02*
Y579997D01*
X352392Y584995D01*
X357391Y579997D01*
Y570000D01*
Y577498D01*
X347394D01*
X362389Y570000D02*
Y584995D01*
X372386Y570000D01*
Y584995D01*
X377384D02*
X387381D01*
X382383D01*
Y570000D01*
X417371Y582496D02*
X414872Y584995D01*
X409874D01*
X407375Y582496D01*
Y572499D01*
X409874Y570000D01*
X414872D01*
X417371Y572499D01*
X422370Y582496D02*
X424869Y584995D01*
X429867D01*
X432366Y582496D01*
Y579997D01*
X429867Y577498D01*
X427368D01*
X429867D01*
X432366Y574998D01*
Y572499D01*
X429867Y570000D01*
X424869D01*
X422370Y572499D01*
X452360Y577498D02*
X462357D01*
X482350Y570000D02*
Y584995D01*
X487349Y579997D01*
X492347Y584995D01*
Y570000D01*
X497346Y584995D02*
Y570000D01*
X504843D01*
X507342Y572499D01*
Y574998D01*
X504843Y577498D01*
X497346D01*
X504843D01*
X507342Y579997D01*
Y582496D01*
X504843Y584995D01*
X497346D01*
X512341Y570000D02*
X517339D01*
X514840D01*
Y584995D01*
X512341Y582496D01*
X524837Y584995D02*
X534833D01*
Y582496D01*
X524837Y572499D01*
Y570000D01*
X547329D02*
Y584995D01*
X539832Y577498D01*
X549828D01*
X562324Y570000D02*
Y584995D01*
X554827Y577498D01*
X564824D01*
X569822D02*
X579819D01*
X584817Y570000D02*
Y579997D01*
X589815Y584995D01*
X594814Y579997D01*
Y570000D01*
Y577498D01*
X584817D01*
X664995D02*
X674992D01*
X694986Y584995D02*
X704982D01*
X699984D01*
Y570000D01*
X717478Y584995D02*
X712480D01*
X709981Y582496D01*
Y572499D01*
X712480Y570000D01*
X717478D01*
X719977Y572499D01*
Y582496D01*
X717478Y584995D01*
X724976Y570000D02*
Y584995D01*
X732473D01*
X734973Y582496D01*
Y577498D01*
X732473Y574998D01*
X724976D01*
X754966Y584995D02*
Y570000D01*
X764963D01*
X769961D02*
Y579997D01*
X774960Y584995D01*
X779958Y579997D01*
Y570000D01*
Y577498D01*
X769961D01*
X784956Y584995D02*
Y582496D01*
X789955Y577498D01*
X794953Y582496D01*
Y584995D01*
X789955Y577498D02*
Y570000D01*
X809948Y584995D02*
X799951D01*
Y570000D01*
X809948D01*
X799951Y577498D02*
X804950D01*
X814947Y570000D02*
Y584995D01*
X822444D01*
X824943Y582496D01*
Y577498D01*
X822444Y574998D01*
X814947D01*
X819945D02*
X824943Y570000D01*
X844937Y577498D02*
X854934D01*
D16*
X20490Y17040D02*
Y37360D01*
X28110Y17040D02*
Y37360D01*
X14140Y23390D02*
X34460D01*
X14140Y31010D02*
X34460D01*
X161922Y480210D02*
X176291Y494578D01*
X167310Y474822D02*
X181679Y489190D01*
X161922D02*
X176291Y474822D01*
X167310Y494578D02*
X181679Y480210D01*
D17*
X173300Y251190D02*
D03*
Y258810D02*
D03*
X126800Y355890D02*
D03*
Y363510D02*
D03*
X75250Y303690D02*
D03*
Y311310D02*
D03*
Y261190D02*
D03*
Y268810D02*
D03*
D18*
X188000Y276716D02*
D03*
Y263000D02*
D03*
Y247000D02*
D03*
Y233284D02*
D03*
D19*
X153201Y235950D02*
D03*
Y248650D02*
D03*
Y261350D02*
D03*
Y274050D02*
D03*
X102401D02*
D03*
Y261350D02*
D03*
Y248650D02*
D03*
Y235950D02*
D03*
D20*
X96310Y217750D02*
D03*
X88690D02*
D03*
X135610Y374700D02*
D03*
X127990D02*
D03*
X135610Y344700D02*
D03*
X127990D02*
D03*
X92990Y359700D02*
D03*
X100610D02*
D03*
X71440Y187500D02*
D03*
X79060D02*
D03*
D21*
X103658Y374700D02*
D03*
X89943D02*
D03*
D22*
X170950Y274050D02*
X171000Y274000D01*
X153201Y274050D02*
X170950D01*
D31*
X208300Y261000D02*
D03*
X200300D02*
D03*
D32*
X188000Y263000D02*
X190000Y261000D01*
X200300D01*
X188000Y247000D02*
X189995Y248995D01*
X263000D01*
X183810Y251190D02*
X188000Y247000D01*
X173300Y251190D02*
X183810D01*
Y258810D02*
X188000Y263000D01*
X173300Y258810D02*
X183810D01*
X153201Y248650D02*
X164650D01*
X167190Y251190D01*
X173300D01*
X167190Y258810D02*
X173300D01*
X164650Y261350D02*
X167190Y258810D01*
X153201Y261350D02*
X164650D01*
X208300Y261000D02*
X293500D01*
X88690Y192690D02*
Y207810D01*
X83500Y187500D02*
X88690Y192690D01*
X79060Y187500D02*
X83500D01*
X75250Y320000D02*
Y336900D01*
Y311310D02*
Y320000D01*
Y336900D02*
X82350Y344000D01*
X127990Y245510D02*
Y344700D01*
X137550Y235950D02*
X153201D01*
X127990Y245510D02*
X137550Y235950D01*
X352399Y248995D02*
X352410D01*
X342500Y239096D02*
X352399Y248995D01*
X342500Y109000D02*
Y239096D01*
Y109000D02*
X737500D01*
Y401000D01*
X335500D02*
X737500D01*
X335500Y102000D02*
Y401000D01*
Y102000D02*
X744500D01*
Y408000D01*
X328500D02*
X744500D01*
X328500Y95000D02*
Y408000D01*
Y95000D02*
X751500D01*
Y415000D01*
X321500D02*
X751500D01*
X321500Y88000D02*
Y415000D01*
Y88000D02*
X758500D01*
Y422000D01*
X314500D02*
X758500D01*
X314500Y81000D02*
Y422000D01*
Y81000D02*
X765500D01*
Y429000D01*
X307500D02*
X765500D01*
X307500Y74000D02*
Y429000D01*
Y74000D02*
X772500D01*
Y436000D01*
X300500D02*
X772500D01*
X300500Y67000D02*
Y436000D01*
Y67000D02*
X779500D01*
Y443000D01*
X293500D02*
X779500D01*
X293500Y261000D02*
Y443000D01*
X103658Y367658D02*
Y374700D01*
X100610Y364610D02*
X103658Y367658D01*
X100610Y359700D02*
Y364610D01*
X93450Y344000D02*
X100610Y351160D01*
Y359700D01*
X82350Y344000D02*
X93450D01*
X126800Y351250D02*
Y355890D01*
Y351250D02*
X127990Y350060D01*
Y344700D02*
Y350060D01*
D33*
X83810Y268810D02*
X85000Y270000D01*
X75250Y268810D02*
X83810D01*
X88690Y228190D02*
X96450Y235950D01*
X88690Y217750D02*
Y228190D01*
X96450Y235950D02*
X102401D01*
X88690Y207810D02*
Y217750D01*
X135610Y344700D02*
X145800D01*
X187700Y291658D02*
X188000Y291358D01*
Y277716D02*
Y291358D01*
Y220742D02*
Y233284D01*
X78500Y375000D02*
X89642D01*
X89943Y374700D01*
X135610D02*
X145800D01*
X106650Y217750D02*
X107000Y218100D01*
X96310Y217750D02*
X106650D01*
D34*
X117000Y454700D02*
Y471000D01*
X108000Y480000D02*
X117000Y471000D01*
X66000Y480000D02*
X108000D01*
X14500Y428500D02*
X66000Y480000D01*
X62500Y386199D02*
X78201Y401900D01*
X103601Y374757D02*
X103658Y374700D01*
X103601Y374757D02*
Y401900D01*
X78201D02*
Y441300D01*
X91600Y454700D01*
X129001Y401900D02*
Y424000D01*
X117000Y436000D02*
X129001Y424000D01*
X117000Y436000D02*
Y454700D01*
X62500Y359550D02*
Y386199D01*
X52650Y349700D02*
X62500Y359550D01*
X36800Y267700D02*
X52650Y283550D01*
Y349700D01*
X14500Y123950D02*
Y428500D01*
Y123950D02*
X23150Y115300D01*
X36800D01*
D35*
X126800Y363510D02*
X127990Y364700D01*
Y374700D01*
Y400889D02*
X129001Y401900D01*
X127990Y374700D02*
Y400889D01*
D36*
X204301Y261000D02*
D03*
D37*
X36800Y89900D02*
D03*
Y115300D02*
D03*
Y140700D02*
D03*
Y166100D02*
D03*
Y191500D02*
D03*
Y216900D02*
D03*
Y242300D02*
D03*
Y267700D02*
D03*
Y293100D02*
D03*
Y318500D02*
D03*
Y343900D02*
D03*
Y369300D02*
D03*
Y394700D02*
D03*
Y420100D02*
D03*
X117000Y454700D02*
D03*
X91600D02*
D03*
X129001Y401900D02*
D03*
X103601D02*
D03*
X78201D02*
D03*
D38*
X75250Y205000D02*
D03*
Y240000D02*
D03*
Y287500D02*
D03*
D39*
X86000Y333000D02*
D03*
X151000Y38000D02*
D03*
X114000Y9500D02*
D03*
X190000Y26000D02*
D03*
Y96000D02*
D03*
X70500Y68000D02*
D03*
X154000Y219500D02*
D03*
X137000Y251500D02*
D03*
X102500Y289000D02*
D03*
X149000Y302500D02*
D03*
X64000Y325500D02*
D03*
X64500Y297500D02*
D03*
Y261500D02*
D03*
X71500Y224000D02*
D03*
X263000Y248995D02*
D03*
X75250Y320000D02*
D03*
X85000Y270000D02*
D03*
X171000Y274000D02*
D03*
X145800Y344700D02*
D03*
X352410Y248995D02*
D03*
X102500Y468500D02*
D03*
X95500Y98500D02*
D03*
X123500Y67000D02*
D03*
X114000Y361000D02*
D03*
X104000Y425500D02*
D03*
X48000Y381500D02*
D03*
X118000Y125500D02*
D03*
X61500Y177000D02*
D03*
X145500Y96500D02*
D03*
X125500Y188500D02*
D03*
X143500Y160000D02*
D03*
X155000Y400500D02*
D03*
X143000Y499000D02*
D03*
X78500Y375000D02*
D03*
X145800Y374700D02*
D03*
X158500Y9500D02*
D03*
X54000Y12000D02*
D03*
X11500Y54000D02*
D03*
X48000Y498500D02*
D03*
X12500Y447500D02*
D03*
X91500Y498500D02*
D03*
X58500Y447500D02*
D03*
X137000Y437000D02*
D03*
X179000Y447500D02*
D03*
X183000Y378500D02*
D03*
X171000Y66000D02*
D03*
X168000Y124000D02*
D03*
X70000Y126500D02*
D03*
X96500Y35500D02*
D03*
X102000Y160000D02*
D03*
X175500Y330300D02*
D03*
X188000Y220742D02*
D03*
X187700Y291658D02*
D03*
X168000Y186000D02*
D03*
X190000Y158000D02*
D03*
X107000Y218100D02*
D03*
X89000Y207500D02*
D03*
X74500Y351500D02*
D03*
X114350Y327400D02*
D03*
X53250Y220700D02*
D03*
X57500Y199500D02*
D03*
X10950Y109500D02*
D03*
M02*
