G04*
G04 #@! TF.GenerationSoftware,Altium Limited,Altium Designer,20.2.4 (192)*
G04*
G04 Layer_Color=5220458*
%FSLAX44Y44*%
%MOMM*%
G71*
G04*
G04 #@! TF.SameCoordinates,9262D3F7-DFB6-46AD-8F0E-08546F4AC646*
G04*
G04*
G04 #@! TF.FilePolarity,Negative*
G04*
G01*
G75*
%ADD11C,0.2000*%
%ADD22C,0.5000*%
%ADD28C,1.7000*%
%ADD29C,1.3000*%
%ADD30C,0.5000*%
D11*
X940003Y582496D02*
X942502Y584995D01*
X947501D01*
X950000Y582496D01*
Y579997D01*
X947501Y577498D01*
X942502D01*
X940003Y574998D01*
Y572499D01*
X942502Y570000D01*
X947501D01*
X950000Y572499D01*
X935005Y584995D02*
X925008D01*
X930006D01*
Y570000D01*
X910013D02*
X920010D01*
X910013Y579997D01*
Y582496D01*
X912512Y584995D01*
X917511D01*
X920010Y582496D01*
X895018Y584995D02*
X905015D01*
Y577498D01*
X900016Y579997D01*
X897517D01*
X895018Y577498D01*
Y572499D01*
X897517Y570000D01*
X902515D01*
X905015Y572499D01*
X890019Y584995D02*
Y570000D01*
X882522D01*
X880023Y572499D01*
Y582496D01*
X882522Y584995D01*
X890019D01*
X875024D02*
Y574998D01*
X870026Y570000D01*
X865027Y574998D01*
Y584995D01*
X850032Y582496D02*
X852532Y584995D01*
X857530D01*
X860029Y582496D01*
Y572499D01*
X857530Y570000D01*
X852532D01*
X850032Y572499D01*
X820042Y584995D02*
X830039D01*
Y570000D01*
X820042D01*
X830039Y577498D02*
X825041D01*
X815044Y584995D02*
Y574998D01*
X810045Y570000D01*
X805047Y574998D01*
Y584995D01*
X792551D02*
X797549D01*
X800049Y582496D01*
Y572499D01*
X797549Y570000D01*
X792551D01*
X790052Y572499D01*
Y582496D01*
X792551Y584995D01*
X770058D02*
Y570000D01*
X762561D01*
X760061Y572499D01*
Y582496D01*
X762561Y584995D01*
X770058D01*
X755063D02*
X750065D01*
X752564D01*
Y570000D01*
X755063D01*
X750065D01*
X732570Y582496D02*
X735070Y584995D01*
X740068D01*
X742567Y582496D01*
Y579997D01*
X740068Y577498D01*
X735070D01*
X732570Y574998D01*
Y572499D01*
X735070Y570000D01*
X740068D01*
X742567Y572499D01*
X717575Y582496D02*
X720074Y584995D01*
X725073D01*
X727572Y582496D01*
Y572499D01*
X725073Y570000D01*
X720074D01*
X717575Y572499D01*
X705079Y584995D02*
X710078D01*
X712577Y582496D01*
Y572499D01*
X710078Y570000D01*
X705079D01*
X702580Y572499D01*
Y582496D01*
X705079Y584995D01*
X697582D02*
Y574998D01*
X692583Y570000D01*
X687585Y574998D01*
Y584995D01*
X672590D02*
X682587D01*
Y570000D01*
X672590D01*
X682587Y577498D02*
X677588D01*
X667591Y570000D02*
Y584995D01*
X660094D01*
X657595Y582496D01*
Y577498D01*
X660094Y574998D01*
X667591D01*
X662593D02*
X657595Y570000D01*
X652596Y584995D02*
Y582496D01*
X647598Y577498D01*
X642600Y582496D01*
Y584995D01*
X647598Y577498D02*
Y570000D01*
X622606D02*
Y579997D01*
X617608Y584995D01*
X612609Y579997D01*
Y570000D01*
Y577498D01*
X622606D01*
X607611Y570000D02*
Y584995D01*
X597614Y570000D01*
Y584995D01*
X592616D02*
X582619D01*
X587617D01*
Y570000D01*
X552629Y582496D02*
X555128Y584995D01*
X560126D01*
X562625Y582496D01*
Y572499D01*
X560126Y570000D01*
X555128D01*
X552629Y572499D01*
X547630Y582496D02*
X545131Y584995D01*
X540133D01*
X537634Y582496D01*
Y579997D01*
X540133Y577498D01*
X542632D01*
X540133D01*
X537634Y574998D01*
Y572499D01*
X540133Y570000D01*
X545131D01*
X547630Y572499D01*
X517640Y577498D02*
X507643D01*
X487650Y570000D02*
Y584995D01*
X482651Y579997D01*
X477653Y584995D01*
Y570000D01*
X472655Y584995D02*
Y570000D01*
X465157D01*
X462658Y572499D01*
Y574998D01*
X465157Y577498D01*
X472655D01*
X465157D01*
X462658Y579997D01*
Y582496D01*
X465157Y584995D01*
X472655D01*
X457659Y570000D02*
X452661D01*
X455160D01*
Y584995D01*
X457659Y582496D01*
X445163Y584995D02*
X435167D01*
Y582496D01*
X445163Y572499D01*
Y570000D01*
X422671D02*
Y584995D01*
X430168Y577498D01*
X420172D01*
X407676Y570000D02*
Y584995D01*
X415173Y577498D01*
X405176D01*
X400178D02*
X390181D01*
X385183Y570000D02*
Y579997D01*
X380185Y584995D01*
X375186Y579997D01*
Y570000D01*
Y577498D01*
X385183D01*
X320000D02*
X310003D01*
X290010Y584995D02*
Y570000D01*
X282512D01*
X280013Y572499D01*
Y574998D01*
X282512Y577498D01*
X290010D01*
X282512D01*
X280013Y579997D01*
Y582496D01*
X282512Y584995D01*
X290010D01*
X267517D02*
X272515D01*
X275015Y582496D01*
Y572499D01*
X272515Y570000D01*
X267517D01*
X265018Y572499D01*
Y582496D01*
X267517Y584995D01*
X260019D02*
X250023D01*
X255021D01*
Y570000D01*
X245024Y584995D02*
X235028D01*
X240026D01*
Y570000D01*
X222532Y584995D02*
X227530D01*
X230029Y582496D01*
Y572499D01*
X227530Y570000D01*
X222532D01*
X220032Y572499D01*
Y582496D01*
X222532Y584995D01*
X215034Y570000D02*
Y584995D01*
X210036Y579997D01*
X205037Y584995D01*
Y570000D01*
X175047Y582496D02*
X177546Y584995D01*
X182544D01*
X185044Y582496D01*
Y579997D01*
X182544Y577498D01*
X177546D01*
X175047Y574998D01*
Y572499D01*
X177546Y570000D01*
X182544D01*
X185044Y572499D01*
X162551Y584995D02*
X167549D01*
X170049Y582496D01*
Y572499D01*
X167549Y570000D01*
X162551D01*
X160052Y572499D01*
Y582496D01*
X162551Y584995D01*
X155053D02*
Y570000D01*
X145057D01*
X140058Y584995D02*
Y570000D01*
X132561D01*
X130062Y572499D01*
Y582496D01*
X132561Y584995D01*
X140058D01*
X115066D02*
X125063D01*
Y570000D01*
X115066D01*
X125063Y577498D02*
X120065D01*
X110068Y570000D02*
Y584995D01*
X102570D01*
X100071Y582496D01*
Y577498D01*
X102570Y574998D01*
X110068D01*
X105070D02*
X100071Y570000D01*
X80078D02*
Y584995D01*
X75079Y579997D01*
X70081Y584995D01*
Y570000D01*
X65083D02*
Y579997D01*
X60084Y584995D01*
X55086Y579997D01*
Y570000D01*
Y577498D01*
X65083D01*
X40091Y582496D02*
X42590Y584995D01*
X47588D01*
X50087Y582496D01*
Y579997D01*
X47588Y577498D01*
X42590D01*
X40091Y574998D01*
Y572499D01*
X42590Y570000D01*
X47588D01*
X50087Y572499D01*
X35092Y584995D02*
Y570000D01*
Y574998D01*
X25096Y584995D01*
X32593Y577498D01*
X25096Y570000D01*
X5102Y577498D02*
X-4895D01*
D22*
X0Y0D02*
X0Y510000D01*
X960000Y510000D01*
X960000Y0D01*
X0Y0D02*
X960000Y0D01*
D28*
X36800Y89900D02*
D03*
Y115300D02*
D03*
Y140700D02*
D03*
Y166100D02*
D03*
Y191500D02*
D03*
Y216900D02*
D03*
Y242300D02*
D03*
Y267700D02*
D03*
Y293100D02*
D03*
Y318500D02*
D03*
Y343900D02*
D03*
Y369300D02*
D03*
Y394700D02*
D03*
Y420100D02*
D03*
X117000Y454700D02*
D03*
X91600D02*
D03*
X129001Y401900D02*
D03*
X103601D02*
D03*
X78201D02*
D03*
D29*
X75250Y205000D02*
D03*
Y240000D02*
D03*
Y287500D02*
D03*
D30*
X86000Y333000D02*
D03*
X151000Y38000D02*
D03*
X114000Y9500D02*
D03*
X190000Y26000D02*
D03*
Y96000D02*
D03*
X70500Y68000D02*
D03*
X154000Y219500D02*
D03*
X137000Y251500D02*
D03*
X102500Y289000D02*
D03*
X149000Y302500D02*
D03*
X64000Y325500D02*
D03*
X64500Y297500D02*
D03*
Y261500D02*
D03*
X71500Y224000D02*
D03*
X263000Y248995D02*
D03*
X75250Y320000D02*
D03*
X85000Y270000D02*
D03*
X171000Y274000D02*
D03*
X145800Y344700D02*
D03*
X352410Y248995D02*
D03*
X102500Y468500D02*
D03*
X95500Y98500D02*
D03*
X123500Y67000D02*
D03*
X114000Y361000D02*
D03*
X104000Y425500D02*
D03*
X48000Y381500D02*
D03*
X118000Y125500D02*
D03*
X61500Y177000D02*
D03*
X145500Y96500D02*
D03*
X125500Y188500D02*
D03*
X143500Y160000D02*
D03*
X155000Y400500D02*
D03*
X143000Y499000D02*
D03*
X78500Y375000D02*
D03*
X145800Y374700D02*
D03*
X158500Y9500D02*
D03*
X54000Y12000D02*
D03*
X11500Y54000D02*
D03*
X48000Y498500D02*
D03*
X12500Y447500D02*
D03*
X91500Y498500D02*
D03*
X58500Y447500D02*
D03*
X137000Y437000D02*
D03*
X179000Y447500D02*
D03*
X183000Y378500D02*
D03*
X171000Y66000D02*
D03*
X168000Y124000D02*
D03*
X70000Y126500D02*
D03*
X96500Y35500D02*
D03*
X102000Y160000D02*
D03*
X175500Y330300D02*
D03*
X188000Y220742D02*
D03*
X187700Y291658D02*
D03*
X168000Y186000D02*
D03*
X190000Y158000D02*
D03*
X107000Y218100D02*
D03*
X89000Y207500D02*
D03*
X74500Y351500D02*
D03*
X114350Y327400D02*
D03*
X53250Y220700D02*
D03*
X57500Y199500D02*
D03*
X10950Y109500D02*
D03*
M02*
