G04*
G04 #@! TF.GenerationSoftware,Altium Limited,Altium Designer,21.2.1 (34)*
G04*
G04 Layer_Color=32896*
%FSLAX44Y44*%
%MOMM*%
G71*
G04*
G04 #@! TF.SameCoordinates,A7F67548-69C5-444C-A4C2-39F0ADA73F1F*
G04*
G04*
G04 #@! TF.FilePolarity,Positive*
G04*
G01*
G75*
%ADD11C,0.2000*%
%ADD16C,0.2500*%
G36*
X574193Y126253D02*
X551764Y102643D01*
D01*
X549796Y74705D01*
X550977Y73524D01*
X573406Y51095D01*
X571832Y49521D01*
X549403Y71950D01*
X548616Y61326D01*
X547436Y60539D01*
Y57785D01*
X543107D01*
Y60539D01*
X527538D01*
X527211Y59973D01*
X525966Y58728D01*
X524440Y57847D01*
X522739Y57391D01*
X520978D01*
X519277Y57847D01*
X517751Y58728D01*
X516506Y59973D01*
X515625Y61499D01*
X515169Y63200D01*
Y64619D01*
X501397Y50308D01*
X499823Y51882D01*
X519891Y72740D01*
X517530Y101856D01*
X512415D01*
Y109726D01*
X495494Y126646D01*
Y129401D01*
X515169Y109726D01*
X516743D01*
X516409Y112734D01*
X515795Y112480D01*
X514543D01*
X513386Y112960D01*
X512500Y113845D01*
X512021Y115002D01*
Y116254D01*
X512500Y117411D01*
X513386Y118297D01*
X514543Y118776D01*
X515795D01*
X516952Y118297D01*
X517591Y117658D01*
X518526Y118605D01*
X520898Y120158D01*
X523544Y121175D01*
X526346Y121612D01*
X527761Y121531D01*
X527761Y122711D01*
X539172D01*
Y121941D01*
X540193Y121880D01*
X541383Y121682D01*
X542546Y121359D01*
X543107Y121137D01*
X548616D01*
Y119957D01*
X549453Y119705D01*
X550953Y118808D01*
X552189Y117572D01*
X553086Y116072D01*
X553338Y115235D01*
X556092D01*
Y113267D01*
X552944D01*
X552158Y105791D01*
X574193Y129401D01*
Y126253D01*
D02*
G37*
G36*
X570258Y23944D02*
X502577D01*
Y42832D01*
X570258D01*
Y23944D01*
D02*
G37*
G36*
X379767Y208663D02*
X380382Y208605D01*
X380909Y208546D01*
X381378Y208458D01*
X381759Y208341D01*
X382051Y208282D01*
X382139Y208253D01*
X382227Y208224D01*
X382256Y208195D01*
X382286D01*
X382754Y207990D01*
X383164Y207755D01*
X383545Y207521D01*
X383838Y207316D01*
X384072Y207111D01*
X384219Y206935D01*
X384336Y206818D01*
X384365Y206789D01*
X384629Y206437D01*
X384834Y206027D01*
X385009Y205647D01*
X385156Y205266D01*
X385244Y204914D01*
X385331Y204651D01*
X385361Y204475D01*
X385390Y204446D01*
Y204417D01*
X383077Y204095D01*
X382930Y204592D01*
X382725Y205032D01*
X382549Y205383D01*
X382344Y205676D01*
X382169Y205881D01*
X382022Y206027D01*
X381934Y206115D01*
X381905Y206145D01*
X381583Y206350D01*
X381173Y206496D01*
X380792Y206584D01*
X380382Y206672D01*
X380001Y206701D01*
X379709Y206730D01*
X379445D01*
X378830Y206701D01*
X378274Y206613D01*
X377805Y206467D01*
X377424Y206320D01*
X377131Y206174D01*
X376926Y206027D01*
X376780Y205940D01*
X376751Y205910D01*
X376516Y205647D01*
X376370Y205354D01*
X376253Y205002D01*
X376165Y204680D01*
X376106Y204387D01*
X376077Y204124D01*
Y203948D01*
Y203919D01*
Y203890D01*
Y203831D01*
Y203743D01*
Y203538D01*
X376106Y203362D01*
Y203304D01*
Y203274D01*
X376370Y203187D01*
X376663Y203099D01*
X377336Y202923D01*
X378039Y202806D01*
X378713Y202689D01*
X379357Y202572D01*
X379621Y202542D01*
X379855Y202513D01*
X380060Y202484D01*
X380206D01*
X380294Y202454D01*
X380323D01*
X380821Y202396D01*
X381231Y202337D01*
X381612Y202279D01*
X381905Y202220D01*
X382139Y202162D01*
X382286Y202132D01*
X382403Y202103D01*
X382432D01*
X382784Y201986D01*
X383106Y201869D01*
X383369Y201752D01*
X383633Y201605D01*
X383838Y201488D01*
X383984Y201400D01*
X384101Y201342D01*
X384131Y201312D01*
X384394Y201107D01*
X384629Y200902D01*
X384863Y200668D01*
X385039Y200463D01*
X385185Y200258D01*
X385273Y200112D01*
X385331Y199994D01*
X385361Y199965D01*
X385507Y199643D01*
X385624Y199321D01*
X385683Y198999D01*
X385742Y198706D01*
X385771Y198472D01*
X385800Y198267D01*
Y198149D01*
Y198091D01*
X385742Y197476D01*
X385595Y196890D01*
X385419Y196422D01*
X385185Y196012D01*
X384951Y195660D01*
X384775Y195426D01*
X384629Y195279D01*
X384570Y195221D01*
X384072Y194840D01*
X383487Y194576D01*
X382930Y194371D01*
X382344Y194254D01*
X381846Y194167D01*
X381612Y194137D01*
X381436D01*
X381261Y194108D01*
X381056D01*
X380529Y194137D01*
X380060Y194196D01*
X379621Y194254D01*
X379211Y194342D01*
X378889Y194430D01*
X378654Y194518D01*
X378508Y194547D01*
X378449Y194576D01*
X377981Y194781D01*
X377541Y195016D01*
X377102Y195279D01*
X376721Y195572D01*
X376370Y195807D01*
X376136Y196012D01*
X375960Y196129D01*
X375901Y196187D01*
X375843Y195807D01*
X375784Y195484D01*
X375726Y195191D01*
X375638Y194928D01*
X375550Y194723D01*
X375491Y194547D01*
X375462Y194459D01*
X375433Y194430D01*
X372973D01*
X373236Y195016D01*
X373353Y195309D01*
X373441Y195543D01*
X373500Y195748D01*
X373529Y195924D01*
X373558Y196041D01*
Y196070D01*
X373588Y196275D01*
X373617Y196509D01*
Y196773D01*
X373646Y197095D01*
X373676Y197769D01*
Y198501D01*
X373705Y199174D01*
Y199467D01*
Y199731D01*
Y199936D01*
Y200112D01*
Y200229D01*
Y200258D01*
Y203421D01*
Y203977D01*
X373734Y204417D01*
X373763Y204797D01*
Y205090D01*
X373793Y205324D01*
X373822Y205471D01*
X373851Y205559D01*
Y205588D01*
X373939Y205940D01*
X374056Y206262D01*
X374173Y206525D01*
X374291Y206759D01*
X374408Y206964D01*
X374496Y207082D01*
X374554Y207169D01*
X374584Y207199D01*
X374818Y207433D01*
X375052Y207638D01*
X375345Y207814D01*
X375608Y207960D01*
X375843Y208077D01*
X376048Y208195D01*
X376165Y208224D01*
X376223Y208253D01*
X376663Y208400D01*
X377131Y208517D01*
X377629Y208575D01*
X378098Y208634D01*
X378508Y208663D01*
X378830Y208692D01*
X379123D01*
X379767Y208663D01*
D02*
G37*
G36*
X714567Y194430D02*
X712136D01*
Y209542D01*
X702032Y194430D01*
X699426D01*
Y213671D01*
X701857D01*
Y198559D01*
X711990Y213671D01*
X714567D01*
Y194430D01*
D02*
G37*
G36*
X527428Y194430D02*
X525202D01*
X519931Y208370D01*
X522362D01*
X525466Y199848D01*
X525671Y199292D01*
X525847Y198794D01*
X525993Y198325D01*
X526110Y197944D01*
X526198Y197652D01*
X526286Y197417D01*
X526315Y197271D01*
X526344Y197212D01*
X526491Y197739D01*
X526667Y198267D01*
X526813Y198735D01*
X526960Y199145D01*
X527077Y199497D01*
X527165Y199760D01*
X527223Y199936D01*
X527252Y199994D01*
X530240Y208370D01*
X532729D01*
X527428Y194430D01*
D02*
G37*
G36*
X680126Y211797D02*
Y208370D01*
X681883D01*
Y206525D01*
X680126D01*
Y198501D01*
Y198120D01*
Y197769D01*
X680097Y197447D01*
Y197154D01*
X680068Y196890D01*
X680039Y196685D01*
X679980Y196304D01*
X679951Y196012D01*
X679892Y195836D01*
X679863Y195719D01*
Y195689D01*
X679746Y195455D01*
X679570Y195250D01*
X679424Y195074D01*
X679248Y194928D01*
X679101Y194811D01*
X678984Y194723D01*
X678896Y194664D01*
X678867Y194635D01*
X678574Y194518D01*
X678252Y194430D01*
X677901Y194342D01*
X677579Y194313D01*
X677286Y194284D01*
X677051Y194254D01*
X676846D01*
X676231Y194284D01*
X675938Y194313D01*
X675675Y194371D01*
X675411Y194401D01*
X675236Y194430D01*
X675118Y194459D01*
X675060D01*
X675382Y196539D01*
X675821Y196480D01*
X675997D01*
X676143Y196451D01*
X676436D01*
X676788Y196480D01*
X677051Y196539D01*
X677198Y196568D01*
X677256Y196597D01*
X677432Y196744D01*
X677549Y196890D01*
X677608Y197007D01*
X677637Y197066D01*
X677666Y197212D01*
X677696Y197388D01*
X677725Y197827D01*
X677754Y198032D01*
Y198208D01*
Y198325D01*
Y198354D01*
Y206525D01*
X675382D01*
Y208370D01*
X677754D01*
Y213232D01*
X680126Y211797D01*
D02*
G37*
G36*
X641498Y213935D02*
X642376Y213818D01*
X643167Y213612D01*
X643519Y213525D01*
X643841Y213407D01*
X644134Y213290D01*
X644426Y213202D01*
X644661Y213085D01*
X644837Y212997D01*
X645012Y212939D01*
X645129Y212880D01*
X645188Y212822D01*
X645217D01*
X645949Y212353D01*
X646623Y211797D01*
X647179Y211240D01*
X647619Y210684D01*
X647999Y210186D01*
X648146Y209981D01*
X648263Y209805D01*
X648351Y209630D01*
X648409Y209513D01*
X648468Y209454D01*
Y209425D01*
X648849Y208575D01*
X649142Y207668D01*
X649317Y206789D01*
X649464Y205969D01*
X649522Y205588D01*
X649552Y205266D01*
X649581Y204944D01*
Y204680D01*
X649610Y204475D01*
Y204329D01*
Y204212D01*
Y204182D01*
X649581Y203157D01*
X649464Y202220D01*
X649288Y201342D01*
X649200Y200932D01*
X649112Y200580D01*
X649024Y200229D01*
X648937Y199936D01*
X648849Y199672D01*
X648761Y199438D01*
X648702Y199262D01*
X648644Y199145D01*
X648614Y199057D01*
Y199028D01*
X648204Y198179D01*
X647707Y197447D01*
X647238Y196802D01*
X646740Y196304D01*
X646330Y195894D01*
X645979Y195602D01*
X645832Y195514D01*
X645744Y195426D01*
X645686Y195396D01*
X645657Y195367D01*
X645276Y195133D01*
X644866Y194957D01*
X644046Y194635D01*
X643196Y194430D01*
X642376Y194254D01*
X642025Y194225D01*
X641674Y194167D01*
X641381Y194137D01*
X641117D01*
X640883Y194108D01*
X640590D01*
X640034Y194137D01*
X639506Y194167D01*
X638540Y194371D01*
X638101Y194489D01*
X637661Y194635D01*
X637281Y194781D01*
X636929Y194928D01*
X636607Y195074D01*
X636343Y195221D01*
X636109Y195367D01*
X635904Y195484D01*
X635728Y195602D01*
X635611Y195689D01*
X635553Y195719D01*
X635523Y195748D01*
X635143Y196070D01*
X634791Y196422D01*
X634206Y197183D01*
X633679Y197974D01*
X633298Y198764D01*
X633122Y199116D01*
X633005Y199438D01*
X632888Y199760D01*
X632771Y199994D01*
X632712Y200229D01*
X632653Y200375D01*
X632624Y200492D01*
Y200522D01*
X635172Y201166D01*
X635406Y200317D01*
X635699Y199555D01*
X636051Y198940D01*
X636373Y198413D01*
X636695Y198032D01*
X636959Y197739D01*
X637134Y197564D01*
X637164Y197534D01*
X637193Y197505D01*
X637779Y197095D01*
X638364Y196802D01*
X638979Y196568D01*
X639536Y196422D01*
X640034Y196334D01*
X640268Y196304D01*
X640444D01*
X640590Y196275D01*
X640795D01*
X641439Y196304D01*
X642054Y196422D01*
X642611Y196568D01*
X643079Y196714D01*
X643489Y196890D01*
X643811Y197007D01*
X643929Y197066D01*
X644016Y197124D01*
X644046Y197154D01*
X644075D01*
X644602Y197534D01*
X645042Y197974D01*
X645422Y198413D01*
X645744Y198882D01*
X645979Y199262D01*
X646125Y199614D01*
X646184Y199731D01*
X646242Y199819D01*
X646272Y199877D01*
Y199907D01*
X646506Y200609D01*
X646682Y201342D01*
X646799Y202074D01*
X646887Y202747D01*
X646916Y203040D01*
X646945Y203304D01*
Y203567D01*
X646974Y203772D01*
Y203948D01*
Y204065D01*
Y204153D01*
Y204182D01*
X646945Y204885D01*
X646887Y205559D01*
X646799Y206174D01*
X646682Y206730D01*
X646564Y207199D01*
X646535Y207404D01*
X646477Y207550D01*
X646447Y207697D01*
X646418Y207785D01*
X646389Y207843D01*
Y207873D01*
X646125Y208517D01*
X645803Y209102D01*
X645452Y209571D01*
X645129Y209981D01*
X644807Y210303D01*
X644544Y210537D01*
X644368Y210684D01*
X644339Y210742D01*
X644309D01*
X643724Y211094D01*
X643109Y211357D01*
X642494Y211562D01*
X641908Y211680D01*
X641381Y211768D01*
X641176Y211797D01*
X640971D01*
X640824Y211826D01*
X640619D01*
X639916Y211797D01*
X639301Y211680D01*
X638745Y211533D01*
X638306Y211357D01*
X637925Y211152D01*
X637661Y211006D01*
X637486Y210889D01*
X637427Y210860D01*
X636959Y210450D01*
X636578Y209981D01*
X636226Y209454D01*
X635963Y208956D01*
X635758Y208517D01*
X635670Y208312D01*
X635582Y208136D01*
X635523Y207990D01*
X635494Y207872D01*
X635465Y207814D01*
Y207785D01*
X632946Y208370D01*
X633298Y209307D01*
X633503Y209747D01*
X633708Y210128D01*
X633942Y210508D01*
X634176Y210860D01*
X634381Y211152D01*
X634616Y211445D01*
X634821Y211680D01*
X635026Y211885D01*
X635231Y212090D01*
X635377Y212236D01*
X635523Y212353D01*
X635611Y212441D01*
X635670Y212470D01*
X635699Y212500D01*
X636080Y212763D01*
X636461Y212997D01*
X636871Y213202D01*
X637281Y213378D01*
X638101Y213642D01*
X638862Y213818D01*
X639214Y213876D01*
X639536Y213905D01*
X639829Y213935D01*
X640063Y213964D01*
X640268Y213993D01*
X640561D01*
X641498Y213935D01*
D02*
G37*
G36*
X622110D02*
X622989Y213818D01*
X623780Y213612D01*
X624131Y213525D01*
X624453Y213407D01*
X624746Y213290D01*
X625039Y213202D01*
X625273Y213085D01*
X625449Y212997D01*
X625625Y212939D01*
X625742Y212880D01*
X625801Y212822D01*
X625830D01*
X626562Y212353D01*
X627235Y211797D01*
X627792Y211240D01*
X628231Y210684D01*
X628612Y210186D01*
X628758Y209981D01*
X628876Y209805D01*
X628963Y209630D01*
X629022Y209513D01*
X629081Y209454D01*
Y209425D01*
X629461Y208575D01*
X629754Y207667D01*
X629930Y206789D01*
X630076Y205969D01*
X630135Y205588D01*
X630164Y205266D01*
X630193Y204944D01*
Y204680D01*
X630223Y204475D01*
Y204329D01*
Y204212D01*
Y204182D01*
X630193Y203157D01*
X630076Y202220D01*
X629901Y201342D01*
X629813Y200932D01*
X629725Y200580D01*
X629637Y200229D01*
X629549Y199936D01*
X629461Y199672D01*
X629373Y199438D01*
X629315Y199262D01*
X629256Y199145D01*
X629227Y199057D01*
Y199028D01*
X628817Y198179D01*
X628319Y197446D01*
X627850Y196802D01*
X627353Y196304D01*
X626943Y195894D01*
X626591Y195602D01*
X626445Y195514D01*
X626357Y195426D01*
X626298Y195396D01*
X626269Y195367D01*
X625888Y195133D01*
X625478Y194957D01*
X624658Y194635D01*
X623809Y194430D01*
X622989Y194254D01*
X622638Y194225D01*
X622286Y194167D01*
X621993Y194137D01*
X621730D01*
X621495Y194108D01*
X621203D01*
X620646Y194137D01*
X620119Y194167D01*
X619152Y194371D01*
X618713Y194489D01*
X618274Y194635D01*
X617893Y194781D01*
X617542Y194928D01*
X617220Y195074D01*
X616956Y195221D01*
X616722Y195367D01*
X616517Y195484D01*
X616341Y195602D01*
X616224Y195689D01*
X616165Y195719D01*
X616136Y195748D01*
X615755Y196070D01*
X615404Y196422D01*
X614818Y197183D01*
X614291Y197974D01*
X613910Y198764D01*
X613735Y199116D01*
X613617Y199438D01*
X613500Y199760D01*
X613383Y199994D01*
X613325Y200229D01*
X613266Y200375D01*
X613237Y200492D01*
Y200522D01*
X615785Y201166D01*
X616019Y200317D01*
X616312Y199555D01*
X616663Y198940D01*
X616985Y198413D01*
X617308Y198032D01*
X617571Y197739D01*
X617747Y197564D01*
X617776Y197534D01*
X617805Y197505D01*
X618391Y197095D01*
X618977Y196802D01*
X619592Y196568D01*
X620148Y196422D01*
X620646Y196334D01*
X620880Y196304D01*
X621056D01*
X621203Y196275D01*
X621408D01*
X622052Y196304D01*
X622667Y196422D01*
X623223Y196568D01*
X623692Y196714D01*
X624102Y196890D01*
X624424Y197007D01*
X624541Y197066D01*
X624629Y197124D01*
X624658Y197154D01*
X624688D01*
X625215Y197534D01*
X625654Y197974D01*
X626035Y198413D01*
X626357Y198882D01*
X626591Y199262D01*
X626738Y199614D01*
X626796Y199731D01*
X626855Y199819D01*
X626884Y199877D01*
Y199907D01*
X627118Y200609D01*
X627294Y201342D01*
X627411Y202074D01*
X627499Y202747D01*
X627528Y203040D01*
X627558Y203304D01*
Y203567D01*
X627587Y203772D01*
Y203948D01*
Y204065D01*
Y204153D01*
Y204182D01*
X627558Y204885D01*
X627499Y205559D01*
X627411Y206174D01*
X627294Y206730D01*
X627177Y207199D01*
X627148Y207404D01*
X627089Y207550D01*
X627060Y207697D01*
X627030Y207785D01*
X627001Y207843D01*
Y207872D01*
X626738Y208517D01*
X626415Y209102D01*
X626064Y209571D01*
X625742Y209981D01*
X625420Y210303D01*
X625156Y210537D01*
X624981Y210684D01*
X624951Y210742D01*
X624922D01*
X624336Y211094D01*
X623721Y211357D01*
X623106Y211562D01*
X622520Y211680D01*
X621993Y211768D01*
X621788Y211797D01*
X621583D01*
X621437Y211826D01*
X621232D01*
X620529Y211797D01*
X619914Y211680D01*
X619357Y211533D01*
X618918Y211357D01*
X618537Y211152D01*
X618274Y211006D01*
X618098Y210889D01*
X618040Y210860D01*
X617571Y210450D01*
X617190Y209981D01*
X616839Y209454D01*
X616575Y208956D01*
X616370Y208517D01*
X616283Y208312D01*
X616195Y208136D01*
X616136Y207990D01*
X616107Y207872D01*
X616077Y207814D01*
Y207785D01*
X613559Y208370D01*
X613910Y209307D01*
X614115Y209747D01*
X614320Y210128D01*
X614555Y210508D01*
X614789Y210860D01*
X614994Y211152D01*
X615228Y211445D01*
X615433Y211680D01*
X615638Y211885D01*
X615843Y212090D01*
X615990Y212236D01*
X616136Y212353D01*
X616224Y212441D01*
X616283Y212470D01*
X616312Y212500D01*
X616693Y212763D01*
X617073Y212997D01*
X617483Y213202D01*
X617893Y213378D01*
X618713Y213642D01*
X619475Y213818D01*
X619826Y213876D01*
X620148Y213905D01*
X620441Y213935D01*
X620675Y213964D01*
X620880Y213993D01*
X621173D01*
X622110Y213935D01*
D02*
G37*
G36*
X512668Y208663D02*
X513166Y208605D01*
X513634Y208517D01*
X514074Y208400D01*
X514513Y208224D01*
X514894Y208077D01*
X515245Y207902D01*
X515567Y207726D01*
X515860Y207521D01*
X516094Y207345D01*
X516329Y207199D01*
X516504Y207052D01*
X516651Y206906D01*
X516739Y206818D01*
X516797Y206760D01*
X516827Y206730D01*
X517149Y206350D01*
X517412Y205940D01*
X517646Y205500D01*
X517851Y205061D01*
X518027Y204592D01*
X518174Y204153D01*
X518379Y203274D01*
X518467Y202864D01*
X518525Y202484D01*
X518554Y202132D01*
X518584Y201840D01*
X518613Y201605D01*
Y201400D01*
Y201283D01*
Y201254D01*
X518584Y200639D01*
X518525Y200053D01*
X518437Y199497D01*
X518320Y198999D01*
X518203Y198530D01*
X518056Y198091D01*
X517881Y197710D01*
X517705Y197359D01*
X517559Y197036D01*
X517383Y196744D01*
X517237Y196509D01*
X517090Y196334D01*
X517002Y196187D01*
X516914Y196070D01*
X516856Y196012D01*
X516827Y195982D01*
X516475Y195660D01*
X516094Y195367D01*
X515714Y195104D01*
X515304Y194899D01*
X514923Y194723D01*
X514513Y194576D01*
X513751Y194342D01*
X513371Y194254D01*
X513049Y194196D01*
X512756Y194167D01*
X512492Y194137D01*
X512287Y194108D01*
X511994D01*
X511116Y194167D01*
X510354Y194284D01*
X509651Y194489D01*
X509095Y194694D01*
X508831Y194811D01*
X508626Y194899D01*
X508451Y195016D01*
X508304Y195104D01*
X508158Y195162D01*
X508070Y195221D01*
X508041Y195279D01*
X508011D01*
X507484Y195748D01*
X507016Y196304D01*
X506664Y196861D01*
X506371Y197388D01*
X506137Y197886D01*
X506049Y198091D01*
X505991Y198267D01*
X505932Y198413D01*
X505903Y198530D01*
X505873Y198589D01*
Y198618D01*
X508304Y198940D01*
X508539Y198413D01*
X508773Y197944D01*
X509007Y197564D01*
X509241Y197271D01*
X509446Y197007D01*
X509622Y196861D01*
X509739Y196744D01*
X509769Y196714D01*
X510120Y196480D01*
X510501Y196334D01*
X510881Y196217D01*
X511233Y196129D01*
X511526Y196070D01*
X511760Y196041D01*
X511994D01*
X512609Y196099D01*
X513166Y196217D01*
X513664Y196422D01*
X514103Y196656D01*
X514425Y196861D01*
X514689Y197066D01*
X514835Y197183D01*
X514894Y197241D01*
X515274Y197739D01*
X515597Y198325D01*
X515802Y198911D01*
X515977Y199467D01*
X516094Y199994D01*
X516124Y200199D01*
X516153Y200404D01*
Y200551D01*
X516182Y200697D01*
Y200756D01*
Y200785D01*
X505815D01*
X505786Y201049D01*
Y201254D01*
Y201371D01*
Y201400D01*
X505815Y202045D01*
X505873Y202630D01*
X505961Y203187D01*
X506049Y203685D01*
X506196Y204182D01*
X506342Y204622D01*
X506518Y205002D01*
X506664Y205383D01*
X506840Y205705D01*
X507016Y205969D01*
X507162Y206203D01*
X507279Y206408D01*
X507396Y206555D01*
X507484Y206672D01*
X507543Y206730D01*
X507572Y206760D01*
X507924Y207111D01*
X508275Y207404D01*
X508656Y207667D01*
X509036Y207872D01*
X509417Y208077D01*
X509798Y208224D01*
X510501Y208458D01*
X510852Y208546D01*
X511145Y208605D01*
X511438Y208634D01*
X511672Y208663D01*
X511877Y208692D01*
X512141D01*
X512668Y208663D01*
D02*
G37*
G36*
X408204Y208663D02*
X408702Y208605D01*
X409170Y208517D01*
X409610Y208400D01*
X410049Y208224D01*
X410430Y208077D01*
X410781Y207902D01*
X411103Y207726D01*
X411396Y207521D01*
X411631Y207345D01*
X411865Y207199D01*
X412040Y207052D01*
X412187Y206906D01*
X412275Y206818D01*
X412333Y206759D01*
X412363Y206730D01*
X412685Y206350D01*
X412948Y205940D01*
X413183Y205500D01*
X413388Y205061D01*
X413563Y204592D01*
X413710Y204153D01*
X413915Y203274D01*
X414003Y202864D01*
X414061Y202484D01*
X414090Y202132D01*
X414120Y201839D01*
X414149Y201605D01*
Y201400D01*
Y201283D01*
Y201254D01*
X414120Y200639D01*
X414061Y200053D01*
X413973Y199497D01*
X413856Y198999D01*
X413739Y198530D01*
X413593Y198091D01*
X413417Y197710D01*
X413241Y197359D01*
X413095Y197036D01*
X412919Y196744D01*
X412773Y196509D01*
X412626Y196334D01*
X412538Y196187D01*
X412450Y196070D01*
X412392Y196012D01*
X412363Y195982D01*
X412011Y195660D01*
X411631Y195367D01*
X411250Y195104D01*
X410840Y194899D01*
X410459Y194723D01*
X410049Y194576D01*
X409288Y194342D01*
X408907Y194254D01*
X408585Y194196D01*
X408292Y194167D01*
X408028Y194137D01*
X407823Y194108D01*
X407530D01*
X406652Y194167D01*
X405890Y194284D01*
X405187Y194489D01*
X404631Y194694D01*
X404367Y194811D01*
X404162Y194899D01*
X403987Y195016D01*
X403840Y195104D01*
X403694Y195162D01*
X403606Y195221D01*
X403577Y195279D01*
X403548D01*
X403020Y195748D01*
X402552Y196304D01*
X402200Y196861D01*
X401908Y197388D01*
X401673Y197886D01*
X401585Y198091D01*
X401527Y198267D01*
X401468Y198413D01*
X401439Y198530D01*
X401410Y198589D01*
Y198618D01*
X403840Y198940D01*
X404075Y198413D01*
X404309Y197944D01*
X404543Y197564D01*
X404777Y197271D01*
X404982Y197007D01*
X405158Y196861D01*
X405275Y196744D01*
X405305Y196714D01*
X405656Y196480D01*
X406037Y196334D01*
X406418Y196217D01*
X406769Y196129D01*
X407062Y196070D01*
X407296Y196041D01*
X407530D01*
X408145Y196099D01*
X408702Y196217D01*
X409200Y196422D01*
X409639Y196656D01*
X409961Y196861D01*
X410225Y197066D01*
X410371Y197183D01*
X410430Y197241D01*
X410811Y197739D01*
X411133Y198325D01*
X411338Y198911D01*
X411513Y199467D01*
X411631Y199994D01*
X411660Y200199D01*
X411689Y200404D01*
Y200551D01*
X411718Y200697D01*
Y200756D01*
Y200785D01*
X401351D01*
X401322Y201049D01*
Y201254D01*
Y201371D01*
Y201400D01*
X401351Y202045D01*
X401410Y202630D01*
X401497Y203187D01*
X401585Y203685D01*
X401732Y204182D01*
X401878Y204622D01*
X402054Y205002D01*
X402200Y205383D01*
X402376Y205705D01*
X402552Y205969D01*
X402698Y206203D01*
X402815Y206408D01*
X402933Y206555D01*
X403020Y206672D01*
X403079Y206730D01*
X403108Y206759D01*
X403460Y207111D01*
X403811Y207404D01*
X404192Y207667D01*
X404572Y207872D01*
X404953Y208077D01*
X405334Y208224D01*
X406037Y208458D01*
X406388Y208546D01*
X406681Y208605D01*
X406974Y208634D01*
X407208Y208663D01*
X407413Y208692D01*
X407677D01*
X408204Y208663D01*
D02*
G37*
G36*
X358915D02*
X359413Y208605D01*
X359882Y208517D01*
X360321Y208400D01*
X360760Y208224D01*
X361141Y208077D01*
X361493Y207902D01*
X361815Y207726D01*
X362108Y207521D01*
X362342Y207345D01*
X362576Y207199D01*
X362752Y207052D01*
X362898Y206906D01*
X362986Y206818D01*
X363045Y206759D01*
X363074Y206730D01*
X363396Y206350D01*
X363660Y205940D01*
X363894Y205500D01*
X364099Y205061D01*
X364275Y204592D01*
X364421Y204153D01*
X364626Y203274D01*
X364714Y202864D01*
X364773Y202484D01*
X364802Y202132D01*
X364831Y201839D01*
X364860Y201605D01*
Y201400D01*
Y201283D01*
Y201254D01*
X364831Y200639D01*
X364773Y200053D01*
X364685Y199497D01*
X364568Y198999D01*
X364450Y198530D01*
X364304Y198091D01*
X364128Y197710D01*
X363953Y197359D01*
X363806Y197036D01*
X363630Y196744D01*
X363484Y196509D01*
X363338Y196334D01*
X363250Y196187D01*
X363162Y196070D01*
X363103Y196012D01*
X363074Y195982D01*
X362723Y195660D01*
X362342Y195367D01*
X361961Y195104D01*
X361551Y194899D01*
X361170Y194723D01*
X360760Y194576D01*
X359999Y194342D01*
X359618Y194254D01*
X359296Y194196D01*
X359003Y194167D01*
X358740Y194137D01*
X358535Y194108D01*
X358242D01*
X357363Y194167D01*
X356602Y194284D01*
X355899Y194489D01*
X355342Y194694D01*
X355079Y194811D01*
X354874Y194899D01*
X354698Y195016D01*
X354552Y195104D01*
X354405Y195162D01*
X354317Y195221D01*
X354288Y195279D01*
X354259D01*
X353732Y195748D01*
X353263Y196304D01*
X352912Y196861D01*
X352619Y197388D01*
X352384Y197886D01*
X352297Y198091D01*
X352238Y198267D01*
X352179Y198413D01*
X352150Y198530D01*
X352121Y198589D01*
Y198618D01*
X354552Y198940D01*
X354786Y198413D01*
X355020Y197944D01*
X355255Y197564D01*
X355489Y197271D01*
X355694Y197007D01*
X355870Y196861D01*
X355987Y196744D01*
X356016Y196714D01*
X356367Y196480D01*
X356748Y196334D01*
X357129Y196217D01*
X357480Y196129D01*
X357773Y196070D01*
X358008Y196041D01*
X358242D01*
X358857Y196099D01*
X359413Y196217D01*
X359911Y196422D01*
X360350Y196656D01*
X360672Y196861D01*
X360936Y197066D01*
X361082Y197183D01*
X361141Y197241D01*
X361522Y197739D01*
X361844Y198325D01*
X362049Y198911D01*
X362225Y199467D01*
X362342Y199994D01*
X362371Y200199D01*
X362400Y200404D01*
Y200551D01*
X362430Y200697D01*
Y200756D01*
Y200785D01*
X352062Y200785D01*
X352033Y201049D01*
Y201254D01*
Y201371D01*
Y201400D01*
X352062Y202044D01*
X352121Y202630D01*
X352209Y203187D01*
X352297Y203685D01*
X352443Y204182D01*
X352589Y204622D01*
X352765Y205002D01*
X352912Y205383D01*
X353087Y205705D01*
X353263Y205969D01*
X353410Y206203D01*
X353527Y206408D01*
X353644Y206555D01*
X353732Y206672D01*
X353790Y206730D01*
X353820Y206759D01*
X354171Y207111D01*
X354522Y207404D01*
X354903Y207667D01*
X355284Y207872D01*
X355665Y208077D01*
X356045Y208224D01*
X356748Y208458D01*
X357100Y208546D01*
X357393Y208605D01*
X357685Y208634D01*
X357920Y208663D01*
X358125Y208692D01*
X358388D01*
X358915Y208663D01*
D02*
G37*
G36*
X665161Y194430D02*
X662613D01*
Y203157D01*
X653593D01*
Y205412D01*
X662613D01*
Y211416D01*
X652187D01*
Y213671D01*
X665161D01*
Y194430D01*
D02*
G37*
G36*
X604744Y194430D02*
X602049D01*
X599970Y200258D01*
X591887D01*
X589661Y194430D01*
X586791D01*
X594611Y213671D01*
X597393D01*
X604744Y194430D01*
D02*
G37*
G36*
X550330Y208663D02*
X550623Y208605D01*
X550886Y208546D01*
X551091Y208458D01*
X551296Y208341D01*
X551443Y208282D01*
X551531Y208224D01*
X551560Y208195D01*
X551824Y207990D01*
X552058Y207697D01*
X552321Y207375D01*
X552556Y207052D01*
X552731Y206760D01*
X552878Y206496D01*
X552995Y206320D01*
X553024Y206291D01*
Y208370D01*
X555162D01*
Y194430D01*
X552790D01*
Y201722D01*
X552761Y202279D01*
X552731Y202777D01*
X552673Y203245D01*
X552585Y203655D01*
X552526Y204007D01*
X552468Y204270D01*
X552439Y204417D01*
X552409Y204475D01*
X552292Y204768D01*
X552175Y205032D01*
X552029Y205266D01*
X551882Y205442D01*
X551765Y205588D01*
X551648Y205705D01*
X551589Y205764D01*
X551560Y205793D01*
X551326Y205940D01*
X551091Y206057D01*
X550857Y206145D01*
X550652Y206203D01*
X550447Y206232D01*
X550301Y206262D01*
X550183D01*
X549861Y206232D01*
X549539Y206174D01*
X549246Y206086D01*
X548983Y205998D01*
X548778Y205910D01*
X548602Y205822D01*
X548485Y205764D01*
X548456Y205735D01*
X547606Y207902D01*
X548075Y208165D01*
X548514Y208370D01*
X548924Y208487D01*
X549276Y208605D01*
X549598Y208663D01*
X549832Y208692D01*
X550037D01*
X550330Y208663D01*
D02*
G37*
G36*
X480072Y194430D02*
X477524D01*
Y203157D01*
X468504D01*
Y205412D01*
X477524D01*
Y211416D01*
X467099D01*
Y213671D01*
X480072D01*
Y194430D01*
D02*
G37*
G36*
X444343Y208663D02*
X444636Y208605D01*
X444900Y208546D01*
X445105Y208458D01*
X445310Y208341D01*
X445456Y208282D01*
X445544Y208224D01*
X445573Y208195D01*
X445837Y207990D01*
X446071Y207697D01*
X446335Y207374D01*
X446569Y207052D01*
X446745Y206759D01*
X446891Y206496D01*
X447008Y206320D01*
X447038Y206291D01*
Y208370D01*
X449175D01*
Y194430D01*
X446803D01*
Y201722D01*
X446774Y202279D01*
X446745Y202777D01*
X446686Y203245D01*
X446598Y203655D01*
X446540Y204007D01*
X446481Y204270D01*
X446452Y204417D01*
X446423Y204475D01*
X446305Y204768D01*
X446188Y205032D01*
X446042Y205266D01*
X445895Y205442D01*
X445778Y205588D01*
X445661Y205705D01*
X445602Y205764D01*
X445573Y205793D01*
X445339Y205940D01*
X445105Y206057D01*
X444870Y206145D01*
X444665Y206203D01*
X444460Y206232D01*
X444314Y206262D01*
X444197D01*
X443875Y206232D01*
X443553Y206174D01*
X443260Y206086D01*
X442996Y205998D01*
X442791Y205910D01*
X442615Y205822D01*
X442498Y205764D01*
X442469Y205735D01*
X441620Y207902D01*
X442088Y208165D01*
X442527Y208370D01*
X442937Y208487D01*
X443289Y208605D01*
X443611Y208663D01*
X443845Y208692D01*
X444050D01*
X444343Y208663D01*
D02*
G37*
G36*
X432424Y194430D02*
X429876D01*
Y202982D01*
X426596D01*
X426303Y202952D01*
X426069D01*
X425864Y202923D01*
X425717Y202894D01*
X425600D01*
X425541Y202864D01*
X425512D01*
X425073Y202718D01*
X424721Y202542D01*
X424575Y202454D01*
X424458Y202396D01*
X424399Y202367D01*
X424370Y202337D01*
X424136Y202191D01*
X423931Y201986D01*
X423491Y201576D01*
X423345Y201371D01*
X423199Y201195D01*
X423111Y201078D01*
X423081Y201049D01*
X422789Y200668D01*
X422496Y200258D01*
X422174Y199819D01*
X421881Y199379D01*
X421617Y198999D01*
X421412Y198706D01*
X421353Y198589D01*
X421295Y198501D01*
X421236Y198442D01*
Y198413D01*
X418689Y194430D01*
X415496D01*
X418835Y199643D01*
X419216Y200199D01*
X419596Y200697D01*
X419948Y201137D01*
X420270Y201517D01*
X420533Y201810D01*
X420738Y202045D01*
X420885Y202162D01*
X420943Y202220D01*
X421148Y202396D01*
X421412Y202572D01*
X421910Y202894D01*
X422115Y203011D01*
X422291Y203099D01*
X422408Y203157D01*
X422466Y203187D01*
X421968Y203274D01*
X421500Y203362D01*
X421061Y203479D01*
X420680Y203626D01*
X420299Y203772D01*
X419977Y203919D01*
X419655Y204065D01*
X419391Y204212D01*
X419157Y204358D01*
X418952Y204475D01*
X418776Y204622D01*
X418630Y204709D01*
X418542Y204827D01*
X418454Y204885D01*
X418396Y204944D01*
X418161Y205207D01*
X417956Y205500D01*
X417605Y206086D01*
X417371Y206642D01*
X417224Y207199D01*
X417107Y207667D01*
X417078Y207872D01*
Y208048D01*
X417048Y208195D01*
Y208312D01*
Y208370D01*
Y208400D01*
X417078Y208985D01*
X417166Y209512D01*
X417312Y210010D01*
X417458Y210450D01*
X417605Y210801D01*
X417751Y211065D01*
X417839Y211240D01*
X417868Y211299D01*
X418191Y211768D01*
X418542Y212148D01*
X418894Y212470D01*
X419245Y212705D01*
X419538Y212910D01*
X419772Y213056D01*
X419948Y213115D01*
X419977Y213144D01*
X420006D01*
X420270Y213232D01*
X420563Y213320D01*
X421178Y213437D01*
X421822Y213554D01*
X422437Y213612D01*
X423023Y213642D01*
X423257D01*
X423491Y213671D01*
X432424D01*
Y194430D01*
D02*
G37*
G36*
X370103D02*
X367730D01*
Y213671D01*
X370103D01*
Y194430D01*
D02*
G37*
G36*
X690289Y208663D02*
X690757Y208634D01*
X691607Y208458D01*
X692368Y208195D01*
X692690Y208048D01*
X692983Y207931D01*
X693276Y207785D01*
X693510Y207638D01*
X693715Y207492D01*
X693891Y207375D01*
X694037Y207287D01*
X694125Y207199D01*
X694184Y207170D01*
X694213Y207140D01*
X694594Y206760D01*
X694916Y206350D01*
X695209Y205910D01*
X695443Y205442D01*
X695648Y204973D01*
X695824Y204505D01*
X695970Y204036D01*
X696087Y203567D01*
X696175Y203128D01*
X696234Y202718D01*
X696292Y202367D01*
X696322Y202045D01*
Y201781D01*
X696351Y201576D01*
Y201459D01*
Y201400D01*
X696322Y200756D01*
X696263Y200141D01*
X696175Y199585D01*
X696058Y199057D01*
X695941Y198589D01*
X695795Y198120D01*
X695619Y197739D01*
X695443Y197359D01*
X695297Y197037D01*
X695121Y196773D01*
X694975Y196539D01*
X694828Y196334D01*
X694740Y196187D01*
X694652Y196070D01*
X694594Y196012D01*
X694565Y195982D01*
X694213Y195660D01*
X693832Y195367D01*
X693452Y195104D01*
X693042Y194899D01*
X692661Y194723D01*
X692251Y194576D01*
X691519Y194342D01*
X691167Y194254D01*
X690845Y194196D01*
X690552Y194167D01*
X690318Y194137D01*
X690113Y194108D01*
X689820D01*
X689146Y194137D01*
X688531Y194254D01*
X687975Y194371D01*
X687477Y194547D01*
X687067Y194694D01*
X686745Y194840D01*
X686628Y194869D01*
X686540Y194928D01*
X686511Y194957D01*
X686481D01*
X685925Y195309D01*
X685456Y195689D01*
X685046Y196070D01*
X684724Y196451D01*
X684461Y196802D01*
X684256Y197066D01*
X684139Y197271D01*
X684109Y197300D01*
Y197329D01*
X683846Y197944D01*
X683641Y198647D01*
X683494Y199350D01*
X683377Y200024D01*
X683348Y200346D01*
X683319Y200639D01*
Y200902D01*
X683289Y201137D01*
Y201312D01*
Y201459D01*
Y201547D01*
Y201576D01*
X683319Y202191D01*
X683377Y202747D01*
X683465Y203304D01*
X683582Y203802D01*
X683729Y204270D01*
X683875Y204680D01*
X684051Y205090D01*
X684197Y205442D01*
X684373Y205735D01*
X684549Y206027D01*
X684695Y206262D01*
X684842Y206437D01*
X684959Y206584D01*
X685046Y206701D01*
X685105Y206760D01*
X685134Y206789D01*
X685486Y207111D01*
X685866Y207404D01*
X686247Y207668D01*
X686628Y207902D01*
X687038Y208078D01*
X687419Y208224D01*
X688151Y208458D01*
X688502Y208546D01*
X688824Y208605D01*
X689088Y208634D01*
X689352Y208663D01*
X689557Y208692D01*
X689820D01*
X690289Y208663D01*
D02*
G37*
G36*
X541046Y208663D02*
X541515Y208634D01*
X542364Y208458D01*
X543125Y208195D01*
X543448Y208048D01*
X543741Y207931D01*
X544033Y207785D01*
X544268Y207638D01*
X544473Y207492D01*
X544648Y207375D01*
X544795Y207287D01*
X544883Y207199D01*
X544941Y207170D01*
X544971Y207140D01*
X545351Y206760D01*
X545673Y206350D01*
X545966Y205910D01*
X546201Y205442D01*
X546406Y204973D01*
X546581Y204505D01*
X546728Y204036D01*
X546845Y203567D01*
X546933Y203128D01*
X546991Y202718D01*
X547050Y202367D01*
X547079Y202045D01*
Y201781D01*
X547108Y201576D01*
Y201459D01*
Y201400D01*
X547079Y200756D01*
X547021Y200141D01*
X546933Y199584D01*
X546816Y199057D01*
X546698Y198589D01*
X546552Y198120D01*
X546376Y197739D01*
X546201Y197359D01*
X546054Y197036D01*
X545878Y196773D01*
X545732Y196539D01*
X545586Y196334D01*
X545498Y196187D01*
X545410Y196070D01*
X545351Y196012D01*
X545322Y195982D01*
X544971Y195660D01*
X544590Y195367D01*
X544209Y195104D01*
X543799Y194899D01*
X543418Y194723D01*
X543008Y194576D01*
X542276Y194342D01*
X541925Y194254D01*
X541603Y194196D01*
X541310Y194167D01*
X541076Y194137D01*
X540871Y194108D01*
X540578D01*
X539904Y194137D01*
X539289Y194254D01*
X538733Y194371D01*
X538235Y194547D01*
X537825Y194694D01*
X537503Y194840D01*
X537385Y194869D01*
X537298Y194928D01*
X537268Y194957D01*
X537239D01*
X536683Y195309D01*
X536214Y195689D01*
X535804Y196070D01*
X535482Y196451D01*
X535218Y196802D01*
X535013Y197066D01*
X534896Y197271D01*
X534867Y197300D01*
Y197329D01*
X534603Y197944D01*
X534398Y198647D01*
X534252Y199350D01*
X534135Y200024D01*
X534105Y200346D01*
X534076Y200639D01*
Y200902D01*
X534047Y201137D01*
Y201312D01*
Y201459D01*
Y201547D01*
Y201576D01*
X534076Y202191D01*
X534135Y202747D01*
X534222Y203304D01*
X534340Y203802D01*
X534486Y204270D01*
X534632Y204680D01*
X534808Y205090D01*
X534955Y205442D01*
X535130Y205735D01*
X535306Y206027D01*
X535452Y206262D01*
X535599Y206437D01*
X535716Y206584D01*
X535804Y206701D01*
X535863Y206760D01*
X535892Y206789D01*
X536243Y207111D01*
X536624Y207404D01*
X537005Y207667D01*
X537385Y207902D01*
X537795Y208077D01*
X538176Y208224D01*
X538908Y208458D01*
X539260Y208546D01*
X539582Y208605D01*
X539846Y208634D01*
X540109Y208663D01*
X540314Y208692D01*
X540578D01*
X541046Y208663D01*
D02*
G37*
G36*
X494071Y206759D02*
X494305Y207052D01*
X494569Y207345D01*
X494862Y207579D01*
X495096Y207755D01*
X495331Y207931D01*
X495506Y208048D01*
X495623Y208107D01*
X495682Y208136D01*
X496063Y208312D01*
X496443Y208458D01*
X496824Y208546D01*
X497146Y208634D01*
X497468Y208663D01*
X497703Y208692D01*
X497908D01*
X498523Y208663D01*
X499108Y208546D01*
X499636Y208400D01*
X500104Y208253D01*
X500485Y208077D01*
X500778Y207931D01*
X500953Y207814D01*
X500983Y207785D01*
X501012D01*
X501510Y207404D01*
X501920Y206994D01*
X502271Y206555D01*
X502564Y206115D01*
X502798Y205735D01*
X502945Y205442D01*
X503003Y205324D01*
X503062Y205237D01*
X503091Y205178D01*
Y205149D01*
X503326Y204505D01*
X503472Y203831D01*
X503589Y203216D01*
X503677Y202630D01*
X503736Y202132D01*
Y201898D01*
X503765Y201722D01*
Y201576D01*
Y201459D01*
Y201400D01*
Y201371D01*
X503736Y200580D01*
X503648Y199877D01*
X503531Y199233D01*
X503384Y198677D01*
X503238Y198208D01*
X503179Y198003D01*
X503121Y197857D01*
X503062Y197739D01*
X503033Y197652D01*
X503003Y197593D01*
Y197564D01*
X502681Y196978D01*
X502359Y196480D01*
X501978Y196041D01*
X501656Y195689D01*
X501334Y195396D01*
X501100Y195191D01*
X500924Y195045D01*
X500895Y195016D01*
X500866D01*
X500338Y194723D01*
X499782Y194489D01*
X499284Y194342D01*
X498786Y194225D01*
X498405Y194167D01*
X498083Y194137D01*
X497966Y194108D01*
X497790D01*
X497322Y194137D01*
X496883Y194196D01*
X496473Y194284D01*
X496092Y194430D01*
X495770Y194576D01*
X495448Y194752D01*
X495155Y194957D01*
X494891Y195133D01*
X494657Y195338D01*
X494452Y195514D01*
X494276Y195689D01*
X494159Y195836D01*
X494042Y195982D01*
X493954Y196070D01*
X493925Y196129D01*
X493895Y196158D01*
Y194430D01*
X491699D01*
Y213671D01*
X494071D01*
Y206759D01*
D02*
G37*
G36*
X458928Y208663D02*
X459396Y208634D01*
X460246Y208458D01*
X461007Y208195D01*
X461329Y208048D01*
X461622Y207931D01*
X461915Y207785D01*
X462149Y207638D01*
X462354Y207492D01*
X462530Y207374D01*
X462676Y207287D01*
X462764Y207199D01*
X462823Y207169D01*
X462852Y207140D01*
X463233Y206759D01*
X463555Y206350D01*
X463848Y205910D01*
X464082Y205442D01*
X464287Y204973D01*
X464463Y204505D01*
X464609Y204036D01*
X464726Y203567D01*
X464814Y203128D01*
X464873Y202718D01*
X464931Y202367D01*
X464961Y202045D01*
Y201781D01*
X464990Y201576D01*
Y201459D01*
Y201400D01*
X464961Y200756D01*
X464902Y200141D01*
X464814Y199584D01*
X464697Y199057D01*
X464580Y198589D01*
X464434Y198120D01*
X464258Y197739D01*
X464082Y197359D01*
X463936Y197036D01*
X463760Y196773D01*
X463614Y196539D01*
X463467Y196334D01*
X463379Y196187D01*
X463291Y196070D01*
X463233Y196012D01*
X463204Y195982D01*
X462852Y195660D01*
X462471Y195367D01*
X462091Y195104D01*
X461681Y194899D01*
X461300Y194723D01*
X460890Y194576D01*
X460158Y194342D01*
X459806Y194254D01*
X459484Y194196D01*
X459191Y194167D01*
X458957Y194137D01*
X458752Y194108D01*
X458459D01*
X457785Y194137D01*
X457170Y194254D01*
X456614Y194371D01*
X456116Y194547D01*
X455706Y194694D01*
X455384Y194840D01*
X455267Y194869D01*
X455179Y194928D01*
X455150Y194957D01*
X455121D01*
X454564Y195309D01*
X454095Y195689D01*
X453685Y196070D01*
X453363Y196451D01*
X453100Y196802D01*
X452895Y197066D01*
X452778Y197271D01*
X452748Y197300D01*
Y197329D01*
X452485Y197944D01*
X452280Y198647D01*
X452133Y199350D01*
X452016Y200024D01*
X451987Y200346D01*
X451958Y200639D01*
Y200902D01*
X451928Y201137D01*
Y201312D01*
Y201459D01*
Y201547D01*
Y201576D01*
X451958Y202191D01*
X452016Y202747D01*
X452104Y203304D01*
X452221Y203802D01*
X452368Y204270D01*
X452514Y204680D01*
X452690Y205090D01*
X452836Y205442D01*
X453012Y205735D01*
X453188Y206027D01*
X453334Y206262D01*
X453480Y206437D01*
X453598Y206584D01*
X453685Y206701D01*
X453744Y206759D01*
X453773Y206789D01*
X454125Y207111D01*
X454506Y207404D01*
X454886Y207667D01*
X455267Y207902D01*
X455677Y208077D01*
X456058Y208224D01*
X456790Y208458D01*
X457141Y208546D01*
X457463Y208605D01*
X457727Y208634D01*
X457990Y208663D01*
X458196Y208692D01*
X458459D01*
X458928Y208663D01*
D02*
G37*
G36*
X394674Y208634D02*
X394996Y208605D01*
X395318Y208546D01*
X395582Y208487D01*
X395757Y208458D01*
X395874Y208400D01*
X395933D01*
X396255Y208282D01*
X396548Y208165D01*
X396812Y208048D01*
X397017Y207931D01*
X397192Y207843D01*
X397309Y207755D01*
X397397Y207726D01*
X397427Y207697D01*
X397690Y207492D01*
X397925Y207257D01*
X398130Y207052D01*
X398276Y206847D01*
X398422Y206672D01*
X398510Y206525D01*
X398569Y206408D01*
X398598Y206379D01*
X398745Y206086D01*
X398832Y205764D01*
X398920Y205471D01*
X398950Y205207D01*
X398979Y205002D01*
X399008Y204797D01*
Y204680D01*
Y204651D01*
X398979Y204270D01*
X398920Y203919D01*
X398862Y203597D01*
X398745Y203333D01*
X398657Y203099D01*
X398598Y202923D01*
X398540Y202806D01*
X398510Y202777D01*
X398305Y202484D01*
X398042Y202220D01*
X397807Y201986D01*
X397544Y201810D01*
X397339Y201664D01*
X397163Y201547D01*
X397017Y201488D01*
X396987Y201459D01*
X396782Y201371D01*
X396548Y201283D01*
X395992Y201078D01*
X395377Y200902D01*
X394791Y200727D01*
X394235Y200551D01*
X394000Y200492D01*
X393766Y200434D01*
X393590Y200375D01*
X393473Y200346D01*
X393385Y200317D01*
X393356D01*
X393004Y200229D01*
X392682Y200141D01*
X392419Y200082D01*
X392155Y199994D01*
X391745Y199848D01*
X391423Y199760D01*
X391189Y199643D01*
X391042Y199584D01*
X390954Y199555D01*
X390925Y199526D01*
X390691Y199350D01*
X390515Y199145D01*
X390398Y198911D01*
X390310Y198735D01*
X390252Y198530D01*
X390222Y198413D01*
Y198296D01*
Y198267D01*
X390252Y197944D01*
X390339Y197652D01*
X390486Y197359D01*
X390603Y197124D01*
X390749Y196949D01*
X390896Y196802D01*
X390984Y196714D01*
X391013Y196685D01*
X391335Y196480D01*
X391716Y196304D01*
X392126Y196187D01*
X392536Y196129D01*
X392887Y196070D01*
X393180Y196041D01*
X393444D01*
X394000Y196070D01*
X394527Y196158D01*
X394937Y196275D01*
X395318Y196422D01*
X395582Y196539D01*
X395787Y196656D01*
X395933Y196744D01*
X395962Y196773D01*
X396255Y197095D01*
X396519Y197446D01*
X396694Y197798D01*
X396841Y198149D01*
X396929Y198472D01*
X397017Y198735D01*
X397046Y198911D01*
Y198940D01*
Y198969D01*
X399389Y198589D01*
X399213Y197798D01*
X398950Y197124D01*
X398657Y196539D01*
X398364Y196070D01*
X398071Y195689D01*
X397837Y195426D01*
X397661Y195279D01*
X397632Y195221D01*
X397602D01*
X397309Y195016D01*
X397017Y194840D01*
X396343Y194576D01*
X395670Y194371D01*
X394996Y194254D01*
X394381Y194167D01*
X394117Y194137D01*
X393883D01*
X393707Y194108D01*
X393444D01*
X392858Y194137D01*
X392302Y194196D01*
X391804Y194284D01*
X391364Y194401D01*
X391013Y194489D01*
X390749Y194576D01*
X390574Y194635D01*
X390515Y194664D01*
X390047Y194899D01*
X389637Y195162D01*
X389285Y195426D01*
X389021Y195689D01*
X388787Y195924D01*
X388611Y196099D01*
X388524Y196217D01*
X388494Y196275D01*
X388260Y196685D01*
X388084Y197066D01*
X387967Y197446D01*
X387879Y197798D01*
X387821Y198062D01*
X387791Y198296D01*
Y198442D01*
Y198501D01*
X387821Y198940D01*
X387879Y199321D01*
X387967Y199672D01*
X388084Y199965D01*
X388201Y200199D01*
X388289Y200375D01*
X388348Y200492D01*
X388377Y200522D01*
X388611Y200814D01*
X388846Y201049D01*
X389109Y201283D01*
X389373Y201459D01*
X389578Y201576D01*
X389754Y201664D01*
X389871Y201722D01*
X389929Y201752D01*
X390134Y201839D01*
X390369Y201927D01*
X390896Y202103D01*
X391482Y202308D01*
X392067Y202484D01*
X392594Y202630D01*
X392829Y202689D01*
X393034Y202747D01*
X393209Y202806D01*
X393327Y202835D01*
X393414Y202864D01*
X393444D01*
X393766Y202952D01*
X394030Y203040D01*
X394498Y203157D01*
X394879Y203274D01*
X395142Y203362D01*
X395347Y203421D01*
X395465Y203450D01*
X395523Y203479D01*
X395552D01*
X395757Y203567D01*
X395962Y203685D01*
X396109Y203772D01*
X396226Y203890D01*
X396402Y204036D01*
X396431Y204065D01*
X396460Y204095D01*
X396607Y204387D01*
X396694Y204651D01*
Y204768D01*
X396724Y204856D01*
Y204914D01*
Y204944D01*
X396694Y205207D01*
X396607Y205442D01*
X396519Y205676D01*
X396372Y205852D01*
X396255Y205998D01*
X396167Y206115D01*
X396079Y206174D01*
X396050Y206203D01*
X395757Y206379D01*
X395377Y206525D01*
X394996Y206613D01*
X394615Y206701D01*
X394264Y206730D01*
X393971Y206759D01*
X393707D01*
X393209Y206730D01*
X392799Y206672D01*
X392419Y206555D01*
X392126Y206467D01*
X391892Y206350D01*
X391716Y206232D01*
X391599Y206174D01*
X391569Y206145D01*
X391306Y205910D01*
X391101Y205617D01*
X390925Y205354D01*
X390808Y205090D01*
X390720Y204856D01*
X390662Y204651D01*
X390632Y204534D01*
Y204475D01*
X388319Y204797D01*
X388436Y205266D01*
X388553Y205676D01*
X388699Y206057D01*
X388816Y206350D01*
X388963Y206584D01*
X389080Y206759D01*
X389139Y206877D01*
X389168Y206906D01*
X389402Y207199D01*
X389695Y207462D01*
X390017Y207667D01*
X390310Y207872D01*
X390574Y207990D01*
X390808Y208107D01*
X390954Y208165D01*
X390984Y208195D01*
X391013D01*
X391482Y208370D01*
X391979Y208487D01*
X392448Y208575D01*
X392917Y208634D01*
X393297Y208663D01*
X393619Y208692D01*
X394293D01*
X394674Y208634D01*
D02*
G37*
G36*
X579353Y208663D02*
X579792Y208605D01*
X580173Y208517D01*
X580524Y208429D01*
X580788Y208312D01*
X580993Y208224D01*
X581110Y208165D01*
X581168Y208136D01*
X581520Y207931D01*
X581842Y207667D01*
X582135Y207404D01*
X582369Y207140D01*
X582574Y206906D01*
X582750Y206730D01*
X582838Y206613D01*
X582867Y206555D01*
Y208370D01*
X585034D01*
Y189100D01*
X582662D01*
Y195836D01*
X582428Y195572D01*
X582164Y195309D01*
X581930Y195104D01*
X581666Y194928D01*
X581461Y194781D01*
X581286Y194664D01*
X581168Y194606D01*
X581139Y194576D01*
X580788Y194430D01*
X580407Y194313D01*
X580055Y194225D01*
X579733Y194167D01*
X579440Y194137D01*
X579235Y194108D01*
X579030D01*
X578445Y194137D01*
X577859Y194254D01*
X577361Y194401D01*
X576893Y194576D01*
X576512Y194723D01*
X576219Y194869D01*
X576102Y194928D01*
X576014Y194986D01*
X575985Y195016D01*
X575955D01*
X575428Y195396D01*
X574989Y195807D01*
X574608Y196246D01*
X574286Y196656D01*
X574052Y197036D01*
X573876Y197329D01*
X573817Y197446D01*
X573759Y197534D01*
X573730Y197593D01*
Y197622D01*
X573466Y198296D01*
X573261Y198969D01*
X573144Y199614D01*
X573027Y200199D01*
X572968Y200727D01*
Y200932D01*
X572939Y201137D01*
Y201283D01*
Y201400D01*
Y201459D01*
Y201488D01*
X572968Y202220D01*
X573056Y202894D01*
X573173Y203509D01*
X573290Y204065D01*
X573408Y204505D01*
X573466Y204709D01*
X573525Y204856D01*
X573583Y204973D01*
X573613Y205061D01*
X573642Y205119D01*
Y205149D01*
X573935Y205764D01*
X574257Y206262D01*
X574608Y206730D01*
X574930Y207082D01*
X575252Y207375D01*
X575487Y207580D01*
X575662Y207726D01*
X575692Y207755D01*
X575721D01*
X576248Y208077D01*
X576775Y208312D01*
X577303Y208458D01*
X577800Y208575D01*
X578210Y208634D01*
X578562Y208692D01*
X578855D01*
X579353Y208663D01*
D02*
G37*
G36*
X564417D02*
X564856Y208605D01*
X565237Y208517D01*
X565588Y208429D01*
X565852Y208312D01*
X566057Y208224D01*
X566174Y208165D01*
X566232Y208136D01*
X566584Y207931D01*
X566906Y207667D01*
X567199Y207404D01*
X567433Y207140D01*
X567638Y206906D01*
X567814Y206730D01*
X567902Y206613D01*
X567931Y206555D01*
Y208370D01*
X570098D01*
Y189100D01*
X567726D01*
Y195836D01*
X567492Y195572D01*
X567228Y195309D01*
X566994Y195104D01*
X566730Y194928D01*
X566525Y194781D01*
X566349Y194664D01*
X566232Y194606D01*
X566203Y194576D01*
X565852Y194430D01*
X565471Y194313D01*
X565120Y194225D01*
X564797Y194167D01*
X564505Y194137D01*
X564300Y194108D01*
X564095D01*
X563509Y194137D01*
X562923Y194254D01*
X562425Y194401D01*
X561957Y194576D01*
X561576Y194723D01*
X561283Y194869D01*
X561166Y194928D01*
X561078Y194986D01*
X561049Y195016D01*
X561019D01*
X560492Y195396D01*
X560053Y195807D01*
X559672Y196246D01*
X559350Y196656D01*
X559116Y197036D01*
X558940Y197329D01*
X558881Y197446D01*
X558823Y197534D01*
X558794Y197593D01*
Y197622D01*
X558530Y198296D01*
X558325Y198969D01*
X558208Y199614D01*
X558091Y200199D01*
X558032Y200727D01*
Y200932D01*
X558003Y201137D01*
Y201283D01*
Y201400D01*
Y201459D01*
Y201488D01*
X558032Y202220D01*
X558120Y202894D01*
X558237Y203509D01*
X558354Y204065D01*
X558471Y204505D01*
X558530Y204709D01*
X558589Y204856D01*
X558647Y204973D01*
X558676Y205061D01*
X558706Y205119D01*
Y205149D01*
X558999Y205764D01*
X559321Y206262D01*
X559672Y206730D01*
X559994Y207082D01*
X560317Y207375D01*
X560551Y207580D01*
X560727Y207726D01*
X560756Y207755D01*
X560785D01*
X561312Y208077D01*
X561839Y208312D01*
X562367Y208458D01*
X562864Y208575D01*
X563274Y208634D01*
X563626Y208692D01*
X563919D01*
X564417Y208663D01*
D02*
G37*
%LPC*%
G36*
X539566Y119563D02*
X539172D01*
Y117596D01*
X527761D01*
Y119170D01*
X527761D01*
X526623Y119177D01*
X524375Y118831D01*
X522250Y118022D01*
X520343Y116784D01*
X519497Y116022D01*
Y115235D01*
X544681D01*
Y118776D01*
X544060Y118967D01*
X542796Y119269D01*
X541512Y119467D01*
X540216Y119558D01*
X539566Y119563D01*
D02*
G37*
G36*
X548616Y117202D02*
Y115235D01*
X550977D01*
Y115235D01*
X550813Y115601D01*
X550349Y116255D01*
X549733Y116769D01*
X549006Y117107D01*
X548616Y117202D01*
D02*
G37*
G36*
X514382Y107758D02*
Y103823D01*
X517530D01*
Y104611D01*
X514382Y107758D01*
D02*
G37*
G36*
X550583Y113267D02*
X519497D01*
Y111693D01*
X519060D01*
X519497Y109726D01*
X520285D01*
Y104611D01*
X525006Y99888D01*
Y101856D01*
X539172D01*
Y97134D01*
X527761D01*
X535711Y89184D01*
X549796Y103823D01*
X550583Y113267D01*
D02*
G37*
G36*
X549394Y100180D02*
X537291Y87604D01*
X547308Y77587D01*
X549394Y100180D01*
D02*
G37*
G36*
X519662Y102083D02*
X522210Y75151D01*
X534074Y87482D01*
X519662Y102083D01*
D02*
G37*
G36*
X535643Y85892D02*
X522304Y72032D01*
X522514Y70770D01*
X522739D01*
X524440Y70314D01*
X525966Y69433D01*
X527211Y68188D01*
X528092Y66663D01*
X528548Y64961D01*
Y63200D01*
X528427Y62749D01*
X528548Y62900D01*
X545862D01*
Y62507D01*
X547010Y74375D01*
X535643Y85892D01*
D02*
G37*
G36*
X376106Y201429D02*
Y200551D01*
X376136Y199994D01*
X376165Y199526D01*
X376223Y199116D01*
X376282Y198764D01*
X376370Y198501D01*
X376428Y198325D01*
X376458Y198208D01*
X376487Y198179D01*
X376692Y197798D01*
X376956Y197476D01*
X377219Y197183D01*
X377453Y196978D01*
X377688Y196773D01*
X377893Y196656D01*
X378010Y196568D01*
X378069Y196539D01*
X378479Y196334D01*
X378889Y196187D01*
X379299Y196099D01*
X379650Y196041D01*
X380001Y195982D01*
X380236Y195953D01*
X380470D01*
X380968Y195982D01*
X381378Y196041D01*
X381759Y196158D01*
X382051Y196275D01*
X382286Y196363D01*
X382432Y196480D01*
X382549Y196539D01*
X382579Y196568D01*
X382813Y196831D01*
X382989Y197095D01*
X383106Y197359D01*
X383194Y197593D01*
X383252Y197827D01*
X383282Y198003D01*
Y198120D01*
Y198149D01*
X383252Y198384D01*
X383223Y198589D01*
X383106Y198940D01*
X383047Y199086D01*
X383018Y199174D01*
X382959Y199233D01*
Y199262D01*
X382666Y199614D01*
X382374Y199848D01*
X382256Y199936D01*
X382139Y199994D01*
X382081Y200053D01*
X382051D01*
X381788Y200141D01*
X381466Y200229D01*
X380792Y200375D01*
X380470Y200434D01*
X380206Y200492D01*
X380031Y200522D01*
X379972D01*
X379504Y200609D01*
X379064Y200668D01*
X378654Y200756D01*
X378274Y200814D01*
X377922Y200902D01*
X377629Y200990D01*
X377336Y201049D01*
X377073Y201107D01*
X376838Y201195D01*
X376663Y201254D01*
X376487Y201283D01*
X376341Y201342D01*
X376253Y201371D01*
X376165Y201400D01*
X376106Y201429D01*
D02*
G37*
G36*
X512258Y206760D02*
X512111D01*
X511789Y206730D01*
X511467Y206701D01*
X510911Y206555D01*
X510413Y206320D01*
X509974Y206057D01*
X509651Y205793D01*
X509388Y205588D01*
X509241Y205412D01*
X509183Y205383D01*
Y205354D01*
X508919Y205002D01*
X508744Y204563D01*
X508568Y204124D01*
X508451Y203714D01*
X508363Y203333D01*
X508304Y203011D01*
Y202894D01*
X508275Y202806D01*
Y202747D01*
Y202718D01*
X516065D01*
X515977Y203362D01*
X515831Y203948D01*
X515626Y204446D01*
X515421Y204856D01*
X515216Y205207D01*
X515040Y205442D01*
X514923Y205588D01*
X514864Y205647D01*
X514425Y206027D01*
X513956Y206291D01*
X513517Y206496D01*
X513078Y206613D01*
X512697Y206701D01*
X512375Y206730D01*
X512258Y206760D01*
D02*
G37*
G36*
X407794Y206759D02*
X407648D01*
X407325Y206730D01*
X407003Y206701D01*
X406447Y206555D01*
X405949Y206320D01*
X405510Y206057D01*
X405187Y205793D01*
X404924Y205588D01*
X404777Y205412D01*
X404719Y205383D01*
Y205354D01*
X404455Y205002D01*
X404280Y204563D01*
X404104Y204124D01*
X403987Y203714D01*
X403899Y203333D01*
X403840Y203011D01*
Y202894D01*
X403811Y202806D01*
Y202747D01*
Y202718D01*
X411601D01*
X411513Y203362D01*
X411367Y203948D01*
X411162Y204446D01*
X410957Y204856D01*
X410752Y205207D01*
X410576Y205442D01*
X410459Y205588D01*
X410401Y205647D01*
X409961Y206027D01*
X409493Y206291D01*
X409053Y206496D01*
X408614Y206613D01*
X408233Y206701D01*
X407911Y206730D01*
X407794Y206759D01*
D02*
G37*
G36*
X358505D02*
X358359D01*
X358037Y206730D01*
X357715Y206701D01*
X357158Y206555D01*
X356660Y206320D01*
X356221Y206057D01*
X355899Y205793D01*
X355635Y205588D01*
X355489Y205412D01*
X355430Y205383D01*
Y205354D01*
X355167Y205002D01*
X354991Y204563D01*
X354815Y204124D01*
X354698Y203714D01*
X354610Y203333D01*
X354552Y203011D01*
Y202894D01*
X354522Y202806D01*
Y202747D01*
Y202718D01*
X362313Y202718D01*
X362225Y203362D01*
X362078Y203948D01*
X361873Y204446D01*
X361668Y204856D01*
X361463Y205207D01*
X361287Y205442D01*
X361170Y205588D01*
X361112Y205647D01*
X360672Y206027D01*
X360204Y206291D01*
X359765Y206496D01*
X359325Y206613D01*
X358945Y206701D01*
X358623Y206730D01*
X358505Y206759D01*
D02*
G37*
G36*
X596075Y211680D02*
X595870Y211035D01*
X595665Y210362D01*
X595431Y209688D01*
X595196Y209044D01*
X595021Y208487D01*
X594933Y208253D01*
X594845Y208048D01*
X594786Y207872D01*
X594728Y207755D01*
X594698Y207667D01*
Y207638D01*
X592707Y202337D01*
X599238D01*
X597129Y207960D01*
X596895Y208634D01*
X596690Y209307D01*
X596514Y209923D01*
X596368Y210508D01*
X596251Y210977D01*
X596192Y211182D01*
X596134Y211357D01*
X596104Y211504D01*
Y211592D01*
X596075Y211650D01*
Y211680D01*
D02*
G37*
G36*
X429876Y211533D02*
X423814D01*
X423052Y211504D01*
X422408Y211387D01*
X421881Y211270D01*
X421441Y211094D01*
X421119Y210947D01*
X420856Y210801D01*
X420738Y210684D01*
X420680Y210655D01*
X420358Y210303D01*
X420094Y209922D01*
X419919Y209542D01*
X419801Y209190D01*
X419743Y208868D01*
X419684Y208634D01*
Y208458D01*
Y208429D01*
Y208400D01*
X419714Y208048D01*
X419772Y207726D01*
X419860Y207433D01*
X419948Y207199D01*
X420036Y206964D01*
X420123Y206818D01*
X420182Y206701D01*
X420211Y206672D01*
X420416Y206408D01*
X420651Y206174D01*
X420914Y205969D01*
X421148Y205793D01*
X421353Y205676D01*
X421529Y205588D01*
X421646Y205559D01*
X421705Y205529D01*
X422086Y205412D01*
X422525Y205324D01*
X422994Y205266D01*
X423433Y205237D01*
X423814Y205207D01*
X424136Y205178D01*
X429876D01*
Y211533D01*
D02*
G37*
G36*
X689996Y206730D02*
X689498D01*
X689205Y206672D01*
X688649Y206525D01*
X688151Y206291D01*
X687711Y206057D01*
X687389Y205822D01*
X687126Y205588D01*
X686979Y205442D01*
X686921Y205412D01*
Y205383D01*
X686511Y204827D01*
X686218Y204212D01*
X686013Y203538D01*
X685866Y202923D01*
X685779Y202337D01*
X685749Y202103D01*
Y201898D01*
X685720Y201693D01*
Y201576D01*
Y201488D01*
Y201459D01*
Y200961D01*
X685779Y200492D01*
X685837Y200053D01*
X685896Y199672D01*
X685984Y199292D01*
X686101Y198940D01*
X686189Y198647D01*
X686306Y198384D01*
X686423Y198149D01*
X686511Y197944D01*
X686628Y197769D01*
X686716Y197622D01*
X686774Y197505D01*
X686833Y197417D01*
X686891Y197388D01*
Y197359D01*
X687126Y197124D01*
X687360Y196919D01*
X687829Y196597D01*
X688326Y196363D01*
X688795Y196217D01*
X689205Y196099D01*
X689527Y196070D01*
X689644Y196041D01*
X689820D01*
X690142Y196070D01*
X690464Y196099D01*
X691021Y196246D01*
X691548Y196451D01*
X691958Y196714D01*
X692309Y196949D01*
X692573Y197154D01*
X692719Y197300D01*
X692778Y197359D01*
X692983Y197622D01*
X693159Y197915D01*
X693452Y198559D01*
X693627Y199233D01*
X693774Y199877D01*
X693862Y200463D01*
X693891Y200727D01*
Y200932D01*
X693920Y201107D01*
Y201254D01*
Y201342D01*
Y201371D01*
Y201869D01*
X693862Y202308D01*
X693803Y202747D01*
X693745Y203128D01*
X693657Y203509D01*
X693569Y203831D01*
X693452Y204124D01*
X693335Y204387D01*
X693247Y204622D01*
X693129Y204827D01*
X693042Y205002D01*
X692954Y205149D01*
X692895Y205237D01*
X692837Y205325D01*
X692778Y205383D01*
X692544Y205617D01*
X692309Y205822D01*
X691812Y206174D01*
X691314Y206408D01*
X690845Y206555D01*
X690435Y206672D01*
X690113Y206701D01*
X689996Y206730D01*
D02*
G37*
G36*
X540753Y206730D02*
X540256D01*
X539963Y206672D01*
X539406Y206525D01*
X538908Y206291D01*
X538469Y206057D01*
X538147Y205822D01*
X537883Y205588D01*
X537737Y205442D01*
X537678Y205412D01*
Y205383D01*
X537268Y204827D01*
X536975Y204212D01*
X536770Y203538D01*
X536624Y202923D01*
X536536Y202337D01*
X536507Y202103D01*
Y201898D01*
X536478Y201693D01*
Y201576D01*
Y201488D01*
Y201459D01*
Y200961D01*
X536536Y200492D01*
X536595Y200053D01*
X536653Y199672D01*
X536741Y199292D01*
X536858Y198940D01*
X536946Y198647D01*
X537063Y198384D01*
X537180Y198149D01*
X537268Y197944D01*
X537385Y197769D01*
X537473Y197622D01*
X537532Y197505D01*
X537590Y197417D01*
X537649Y197388D01*
Y197359D01*
X537883Y197124D01*
X538118Y196919D01*
X538586Y196597D01*
X539084Y196363D01*
X539553Y196217D01*
X539963Y196099D01*
X540285Y196070D01*
X540402Y196041D01*
X540578D01*
X540900Y196070D01*
X541222Y196099D01*
X541778Y196246D01*
X542305Y196451D01*
X542715Y196714D01*
X543067Y196949D01*
X543330Y197154D01*
X543477Y197300D01*
X543535Y197359D01*
X543741Y197622D01*
X543916Y197915D01*
X544209Y198559D01*
X544385Y199233D01*
X544531Y199877D01*
X544619Y200463D01*
X544648Y200727D01*
Y200932D01*
X544678Y201107D01*
Y201254D01*
Y201342D01*
Y201371D01*
Y201869D01*
X544619Y202308D01*
X544561Y202747D01*
X544502Y203128D01*
X544414Y203509D01*
X544326Y203831D01*
X544209Y204124D01*
X544092Y204387D01*
X544004Y204622D01*
X543887Y204827D01*
X543799Y205002D01*
X543711Y205149D01*
X543653Y205237D01*
X543594Y205324D01*
X543535Y205383D01*
X543301Y205617D01*
X543067Y205822D01*
X542569Y206174D01*
X542071Y206408D01*
X541603Y206555D01*
X541193Y206672D01*
X540871Y206701D01*
X540753Y206730D01*
D02*
G37*
G36*
X497820Y206730D02*
X497380D01*
X497088Y206672D01*
X496561Y206525D01*
X496092Y206291D01*
X495711Y206057D01*
X495389Y205822D01*
X495155Y205588D01*
X495008Y205442D01*
X494950Y205412D01*
Y205383D01*
X494745Y205119D01*
X494569Y204827D01*
X494305Y204153D01*
X494100Y203450D01*
X493983Y202777D01*
X493895Y202132D01*
X493866Y201869D01*
Y201634D01*
X493837Y201429D01*
Y201283D01*
Y201195D01*
Y201166D01*
Y200697D01*
X493895Y200258D01*
X493925Y199848D01*
X494013Y199467D01*
X494100Y199116D01*
X494188Y198794D01*
X494276Y198501D01*
X494364Y198267D01*
X494481Y198032D01*
X494569Y197827D01*
X494657Y197681D01*
X494745Y197534D01*
X494833Y197446D01*
X494862Y197359D01*
X494920Y197329D01*
Y197300D01*
X495126Y197066D01*
X495331Y196890D01*
X495799Y196568D01*
X496238Y196363D01*
X496648Y196187D01*
X497000Y196099D01*
X497293Y196070D01*
X497410Y196041D01*
X497556D01*
X497849Y196070D01*
X498113Y196099D01*
X498640Y196246D01*
X499079Y196451D01*
X499460Y196714D01*
X499782Y196949D01*
X500016Y197154D01*
X500163Y197300D01*
X500221Y197359D01*
X500426Y197622D01*
X500602Y197915D01*
X500866Y198530D01*
X501071Y199204D01*
X501188Y199848D01*
X501276Y200463D01*
X501305Y200697D01*
Y200932D01*
X501334Y201107D01*
Y201254D01*
Y201342D01*
Y201371D01*
Y201869D01*
X501276Y202337D01*
X501246Y202777D01*
X501158Y203187D01*
X501100Y203538D01*
X501012Y203890D01*
X500895Y204182D01*
X500807Y204446D01*
X500719Y204680D01*
X500602Y204885D01*
X500514Y205061D01*
X500456Y205207D01*
X500368Y205295D01*
X500338Y205383D01*
X500280Y205442D01*
X500075Y205676D01*
X499870Y205881D01*
X499431Y206174D01*
X498991Y206408D01*
X498581Y206584D01*
X498230Y206672D01*
X497937Y206701D01*
X497820Y206730D01*
D02*
G37*
G36*
X458635D02*
X458137D01*
X457844Y206672D01*
X457288Y206525D01*
X456790Y206291D01*
X456351Y206057D01*
X456028Y205822D01*
X455765Y205588D01*
X455618Y205442D01*
X455560Y205412D01*
Y205383D01*
X455150Y204827D01*
X454857Y204212D01*
X454652Y203538D01*
X454506Y202923D01*
X454418Y202337D01*
X454388Y202103D01*
Y201898D01*
X454359Y201693D01*
Y201576D01*
Y201488D01*
Y201459D01*
Y200961D01*
X454418Y200492D01*
X454476Y200053D01*
X454535Y199672D01*
X454623Y199291D01*
X454740Y198940D01*
X454828Y198647D01*
X454945Y198384D01*
X455062Y198149D01*
X455150Y197944D01*
X455267Y197769D01*
X455355Y197622D01*
X455413Y197505D01*
X455472Y197417D01*
X455531Y197388D01*
Y197359D01*
X455765Y197124D01*
X455999Y196919D01*
X456468Y196597D01*
X456965Y196363D01*
X457434Y196217D01*
X457844Y196099D01*
X458166Y196070D01*
X458283Y196041D01*
X458459D01*
X458781Y196070D01*
X459103Y196099D01*
X459660Y196246D01*
X460187Y196451D01*
X460597Y196714D01*
X460948Y196949D01*
X461212Y197154D01*
X461358Y197300D01*
X461417Y197359D01*
X461622Y197622D01*
X461798Y197915D01*
X462091Y198559D01*
X462266Y199233D01*
X462413Y199877D01*
X462501Y200463D01*
X462530Y200727D01*
Y200932D01*
X462559Y201107D01*
Y201254D01*
Y201342D01*
Y201371D01*
Y201869D01*
X462501Y202308D01*
X462442Y202747D01*
X462383Y203128D01*
X462296Y203509D01*
X462208Y203831D01*
X462091Y204124D01*
X461973Y204387D01*
X461886Y204622D01*
X461768Y204827D01*
X461681Y205002D01*
X461593Y205149D01*
X461534Y205237D01*
X461476Y205324D01*
X461417Y205383D01*
X461183Y205617D01*
X460948Y205822D01*
X460451Y206174D01*
X459953Y206408D01*
X459484Y206555D01*
X459074Y206672D01*
X458752Y206701D01*
X458635Y206730D01*
D02*
G37*
G36*
X579206Y206847D02*
X578796D01*
X578532Y206789D01*
X578035Y206642D01*
X577595Y206408D01*
X577215Y206174D01*
X576893Y205940D01*
X576688Y205705D01*
X576541Y205559D01*
X576483Y205529D01*
Y205500D01*
X576278Y205237D01*
X576102Y204944D01*
X575838Y204329D01*
X575633Y203655D01*
X575516Y203011D01*
X575428Y202425D01*
X575399Y202162D01*
Y201927D01*
X575370Y201752D01*
Y201605D01*
Y201517D01*
Y201488D01*
Y200990D01*
X575428Y200522D01*
X575487Y200082D01*
X575545Y199672D01*
X575633Y199292D01*
X575721Y198969D01*
X575838Y198647D01*
X575926Y198384D01*
X576043Y198149D01*
X576160Y197944D01*
X576248Y197769D01*
X576336Y197622D01*
X576395Y197505D01*
X576453Y197417D01*
X576512Y197388D01*
Y197359D01*
X576717Y197124D01*
X576951Y196919D01*
X577390Y196597D01*
X577830Y196363D01*
X578269Y196217D01*
X578620Y196099D01*
X578913Y196070D01*
X579030Y196041D01*
X579177D01*
X579470Y196070D01*
X579733Y196099D01*
X580231Y196246D01*
X580700Y196451D01*
X581080Y196685D01*
X581373Y196919D01*
X581608Y197124D01*
X581754Y197271D01*
X581813Y197329D01*
X581988Y197593D01*
X582164Y197886D01*
X582428Y198501D01*
X582603Y199145D01*
X582720Y199819D01*
X582808Y200404D01*
X582838Y200639D01*
Y200873D01*
X582867Y201049D01*
Y201195D01*
Y201283D01*
Y201312D01*
Y201810D01*
X582808Y202250D01*
X582750Y202689D01*
X582691Y203099D01*
X582603Y203450D01*
X582515Y203802D01*
X582398Y204095D01*
X582281Y204387D01*
X582193Y204622D01*
X582076Y204827D01*
X581988Y205002D01*
X581900Y205149D01*
X581842Y205266D01*
X581783Y205354D01*
X581725Y205383D01*
Y205412D01*
X581520Y205676D01*
X581286Y205881D01*
X581051Y206086D01*
X580817Y206232D01*
X580378Y206496D01*
X579968Y206672D01*
X579587Y206760D01*
X579323Y206818D01*
X579206Y206847D01*
D02*
G37*
G36*
X564270D02*
X563860D01*
X563597Y206789D01*
X563099Y206642D01*
X562659Y206408D01*
X562279Y206174D01*
X561957Y205940D01*
X561752Y205705D01*
X561605Y205559D01*
X561547Y205529D01*
Y205500D01*
X561342Y205237D01*
X561166Y204944D01*
X560902Y204329D01*
X560697Y203655D01*
X560580Y203011D01*
X560492Y202425D01*
X560463Y202162D01*
Y201927D01*
X560434Y201752D01*
Y201605D01*
Y201517D01*
Y201488D01*
Y200990D01*
X560492Y200522D01*
X560551Y200082D01*
X560609Y199672D01*
X560697Y199292D01*
X560785Y198969D01*
X560902Y198647D01*
X560990Y198384D01*
X561107Y198149D01*
X561224Y197944D01*
X561312Y197769D01*
X561400Y197622D01*
X561459Y197505D01*
X561517Y197417D01*
X561576Y197388D01*
Y197359D01*
X561781Y197124D01*
X562015Y196919D01*
X562454Y196597D01*
X562894Y196363D01*
X563333Y196217D01*
X563684Y196099D01*
X563977Y196070D01*
X564095Y196041D01*
X564241D01*
X564534Y196070D01*
X564797Y196099D01*
X565295Y196246D01*
X565764Y196451D01*
X566144Y196685D01*
X566437Y196919D01*
X566672Y197124D01*
X566818Y197271D01*
X566877Y197329D01*
X567052Y197593D01*
X567228Y197886D01*
X567492Y198501D01*
X567667Y199145D01*
X567785Y199819D01*
X567872Y200404D01*
X567902Y200639D01*
Y200873D01*
X567931Y201049D01*
Y201195D01*
Y201283D01*
Y201312D01*
Y201810D01*
X567872Y202250D01*
X567814Y202689D01*
X567755Y203099D01*
X567667Y203450D01*
X567579Y203802D01*
X567462Y204095D01*
X567345Y204387D01*
X567257Y204622D01*
X567140Y204827D01*
X567052Y205002D01*
X566964Y205149D01*
X566906Y205266D01*
X566847Y205354D01*
X566789Y205383D01*
Y205412D01*
X566584Y205676D01*
X566349Y205881D01*
X566115Y206086D01*
X565881Y206232D01*
X565442Y206496D01*
X565032Y206672D01*
X564651Y206760D01*
X564387Y206818D01*
X564270Y206847D01*
D02*
G37*
%LPD*%
D11*
X142500Y60000D02*
G03*
X142500Y60000I-47500J0D01*
G01*
X237500Y450000D02*
G03*
X237500Y450000I-47500J0D01*
G01*
X947500D02*
G03*
X947500Y450000I-47500J0D01*
G01*
Y60000D02*
G03*
X947500Y60000I-47500J0D01*
G01*
X721838Y181500D02*
Y226000D01*
X342000Y181500D02*
X721838D01*
X342000D02*
Y226000D01*
X721838D01*
X320000Y577498D02*
X310003D01*
X290010Y584995D02*
Y570000D01*
X282512D01*
X280013Y572499D01*
Y574998D01*
X282512Y577498D01*
X290010D01*
X282512D01*
X280013Y579997D01*
Y582496D01*
X282512Y584995D01*
X290010D01*
X267517D02*
X272515D01*
X275015Y582496D01*
Y572499D01*
X272515Y570000D01*
X267517D01*
X265018Y572499D01*
Y582496D01*
X267517Y584995D01*
X260019D02*
X250023D01*
X255021D01*
Y570000D01*
X245024Y584995D02*
X235028D01*
X240026D01*
Y570000D01*
X222532Y584995D02*
X227530D01*
X230029Y582496D01*
Y572499D01*
X227530Y570000D01*
X222532D01*
X220032Y572499D01*
Y582496D01*
X222532Y584995D01*
X215034Y570000D02*
Y584995D01*
X210036Y579997D01*
X205037Y584995D01*
Y570000D01*
X177546Y584995D02*
X182544D01*
X185044Y582496D01*
Y572499D01*
X182544Y570000D01*
X177546D01*
X175047Y572499D01*
Y582496D01*
X177546Y584995D01*
X170049D02*
Y574998D01*
X165050Y570000D01*
X160052Y574998D01*
Y584995D01*
X145057D02*
X155053D01*
Y570000D01*
X145057D01*
X155053Y577498D02*
X150055D01*
X140058Y570000D02*
Y584995D01*
X132561D01*
X130062Y582496D01*
Y577498D01*
X132561Y574998D01*
X140058D01*
X135060D02*
X130062Y570000D01*
X125063Y584995D02*
Y570000D01*
X115066D01*
X110068D02*
Y579997D01*
X105070Y584995D01*
X100071Y579997D01*
Y570000D01*
Y577498D01*
X110068D01*
X95073Y584995D02*
Y582496D01*
X90074Y577498D01*
X85076Y582496D01*
Y584995D01*
X90074Y577498D02*
Y570000D01*
X65083Y577498D02*
X55086D01*
X940003Y582496D02*
X942502Y584995D01*
X947501D01*
X950000Y582496D01*
Y579997D01*
X947501Y577498D01*
X942502D01*
X940003Y574998D01*
Y572499D01*
X942502Y570000D01*
X947501D01*
X950000Y572499D01*
X935005Y584995D02*
X925008D01*
X930006D01*
Y570000D01*
X910013D02*
X920010D01*
X910013Y579997D01*
Y582496D01*
X912512Y584995D01*
X917511D01*
X920010Y582496D01*
X895018Y584995D02*
X905015D01*
Y577498D01*
X900016Y579997D01*
X897517D01*
X895018Y577498D01*
Y572499D01*
X897517Y570000D01*
X902515D01*
X905015Y572499D01*
X890019Y584995D02*
Y570000D01*
X882522D01*
X880023Y572499D01*
Y582496D01*
X882522Y584995D01*
X890019D01*
X875024D02*
Y574998D01*
X870026Y570000D01*
X865027Y574998D01*
Y584995D01*
X850032Y582496D02*
X852532Y584995D01*
X857530D01*
X860029Y582496D01*
Y572499D01*
X857530Y570000D01*
X852532D01*
X850032Y572499D01*
X820042Y584995D02*
X830039D01*
Y570000D01*
X820042D01*
X830039Y577498D02*
X825041D01*
X815044Y584995D02*
Y574998D01*
X810045Y570000D01*
X805047Y574998D01*
Y584995D01*
X792551D02*
X797549D01*
X800049Y582496D01*
Y572499D01*
X797549Y570000D01*
X792551D01*
X790052Y572499D01*
Y582496D01*
X792551Y584995D01*
X770058D02*
Y570000D01*
X762561D01*
X760061Y572499D01*
Y582496D01*
X762561Y584995D01*
X770058D01*
X755063D02*
X750065D01*
X752564D01*
Y570000D01*
X755063D01*
X750065D01*
X732570Y582496D02*
X735070Y584995D01*
X740068D01*
X742567Y582496D01*
Y579997D01*
X740068Y577498D01*
X735070D01*
X732570Y574998D01*
Y572499D01*
X735070Y570000D01*
X740068D01*
X742567Y572499D01*
X717575Y582496D02*
X720074Y584995D01*
X725073D01*
X727572Y582496D01*
Y572499D01*
X725073Y570000D01*
X720074D01*
X717575Y572499D01*
X705079Y584995D02*
X710078D01*
X712577Y582496D01*
Y572499D01*
X710078Y570000D01*
X705079D01*
X702580Y572499D01*
Y582496D01*
X705079Y584995D01*
X697582D02*
Y574998D01*
X692583Y570000D01*
X687585Y574998D01*
Y584995D01*
X672590D02*
X682587D01*
Y570000D01*
X672590D01*
X682587Y577498D02*
X677588D01*
X667591Y570000D02*
Y584995D01*
X660094D01*
X657595Y582496D01*
Y577498D01*
X660094Y574998D01*
X667591D01*
X662593D02*
X657595Y570000D01*
X652596Y584995D02*
Y582496D01*
X647598Y577498D01*
X642600Y582496D01*
Y584995D01*
X647598Y577498D02*
Y570000D01*
X622606D02*
Y579997D01*
X617608Y584995D01*
X612609Y579997D01*
Y570000D01*
Y577498D01*
X622606D01*
X607611Y570000D02*
Y584995D01*
X597614Y570000D01*
Y584995D01*
X592616D02*
X582619D01*
X587617D01*
Y570000D01*
X552629Y582496D02*
X555128Y584995D01*
X560126D01*
X562625Y582496D01*
Y572499D01*
X560126Y570000D01*
X555128D01*
X552629Y572499D01*
X547630Y582496D02*
X545131Y584995D01*
X540133D01*
X537634Y582496D01*
Y579997D01*
X540133Y577498D01*
X542632D01*
X540133D01*
X537634Y574998D01*
Y572499D01*
X540133Y570000D01*
X545131D01*
X547630Y572499D01*
X517640Y577498D02*
X507643D01*
X487650Y570000D02*
Y584995D01*
X482651Y579997D01*
X477653Y584995D01*
Y570000D01*
X472655Y584995D02*
Y570000D01*
X465157D01*
X462658Y572499D01*
Y574998D01*
X465157Y577498D01*
X472655D01*
X465157D01*
X462658Y579997D01*
Y582496D01*
X465157Y584995D01*
X472655D01*
X457659Y570000D02*
X452661D01*
X455160D01*
Y584995D01*
X457659Y582496D01*
X445163Y584995D02*
X435167D01*
Y582496D01*
X445163Y572499D01*
Y570000D01*
X422671D02*
Y584995D01*
X430168Y577498D01*
X420172D01*
X407676Y570000D02*
Y584995D01*
X415173Y577498D01*
X405176D01*
X400178D02*
X390181D01*
X385183Y570000D02*
Y579997D01*
X380185Y584995D01*
X375186Y579997D01*
Y570000D01*
Y577498D01*
X385183D01*
D16*
X191500Y46000D02*
Y57996D01*
X185502D01*
X183503Y55997D01*
Y51998D01*
X185502Y49999D01*
X191500D01*
X171507Y57996D02*
X179504D01*
Y46000D01*
X171507D01*
X179504Y51998D02*
X175505D01*
X159510Y55997D02*
X161510Y57996D01*
X165508D01*
X167508Y55997D01*
Y47999D01*
X165508Y46000D01*
X161510D01*
X159510Y47999D01*
Y51998D01*
X163509D01*
X149514Y46000D02*
Y57996D01*
X155512Y51998D01*
X147514D01*
X841000Y51500D02*
Y63496D01*
X835002D01*
X833003Y61497D01*
Y57498D01*
X835002Y55499D01*
X841000D01*
X821006Y63496D02*
X829004D01*
Y51500D01*
X821006D01*
X829004Y57498D02*
X825005D01*
X809010Y61497D02*
X811010Y63496D01*
X815008D01*
X817008Y61497D01*
Y53499D01*
X815008Y51500D01*
X811010D01*
X809010Y53499D01*
Y57498D01*
X813009D01*
X805012Y61497D02*
X803012Y63496D01*
X799014D01*
X797014Y61497D01*
Y59497D01*
X799014Y57498D01*
X801013D01*
X799014D01*
X797014Y55499D01*
Y53499D01*
X799014Y51500D01*
X803012D01*
X805012Y53499D01*
X844000Y445500D02*
Y457496D01*
X838002D01*
X836003Y455497D01*
Y451498D01*
X838002Y449499D01*
X844000D01*
X824007Y457496D02*
X832004D01*
Y445500D01*
X824007D01*
X832004Y451498D02*
X828005D01*
X812010Y455497D02*
X814010Y457496D01*
X818008D01*
X820008Y455497D01*
Y447499D01*
X818008Y445500D01*
X814010D01*
X812010Y447499D01*
Y451498D01*
X816009D01*
X800014Y445500D02*
X808012D01*
X800014Y453497D01*
Y455497D01*
X802014Y457496D01*
X806012D01*
X808012Y455497D01*
X283500Y444500D02*
Y456496D01*
X277502D01*
X275503Y454497D01*
Y450498D01*
X277502Y448499D01*
X283500D01*
X263507Y456496D02*
X271504D01*
Y444500D01*
X263507D01*
X271504Y450498D02*
X267505D01*
X251510Y454497D02*
X253510Y456496D01*
X257508D01*
X259508Y454497D01*
Y446499D01*
X257508Y444500D01*
X253510D01*
X251510Y446499D01*
Y450498D01*
X255509D01*
X247512Y444500D02*
X243513D01*
X245512D01*
Y456496D01*
X247512Y454497D01*
M02*
