G04*
G04 #@! TF.GenerationSoftware,Altium Limited,Altium Designer,21.2.1 (34)*
G04*
G04 Layer_Physical_Order=2*
G04 Layer_Color=16711680*
%FSLAX44Y44*%
%MOMM*%
G71*
G04*
G04 #@! TF.SameCoordinates,A7F67548-69C5-444C-A4C2-39F0ADA73F1F*
G04*
G04*
G04 #@! TF.FilePolarity,Positive*
G04*
G01*
G75*
%ADD11C,0.2000*%
%ADD32C,0.4000*%
%ADD33C,0.3000*%
%ADD34C,0.8000*%
%ADD37C,1.6000*%
%ADD38C,1.2000*%
%ADD39C,0.8500*%
G36*
X195000Y504902D02*
X195000Y5098D01*
X5098Y5098D01*
X5098Y504902D01*
X195000Y504902D01*
D02*
G37*
%LPC*%
G36*
X117000Y465795D02*
X114129Y465417D01*
X111453Y464308D01*
X109155Y462545D01*
X107392Y460247D01*
X106284Y457571D01*
X105906Y454700D01*
X106284Y451828D01*
X107392Y449152D01*
X109155Y446855D01*
X111453Y445091D01*
X114129Y443983D01*
X117000Y443605D01*
X119872Y443983D01*
X122548Y445091D01*
X124846Y446855D01*
X126609Y449152D01*
X127717Y451828D01*
X128095Y454700D01*
X127717Y457571D01*
X126609Y460247D01*
X124846Y462545D01*
X122548Y464308D01*
X119872Y465417D01*
X117000Y465795D01*
D02*
G37*
G36*
X91600D02*
X88729Y465417D01*
X86053Y464308D01*
X83755Y462545D01*
X81992Y460247D01*
X80884Y457571D01*
X80506Y454700D01*
X80884Y451828D01*
X81992Y449152D01*
X83755Y446855D01*
X86053Y445091D01*
X88729Y443983D01*
X91600Y443605D01*
X94472Y443983D01*
X97148Y445091D01*
X99446Y446855D01*
X101209Y449152D01*
X102317Y451828D01*
X102695Y454700D01*
X102317Y457571D01*
X101209Y460247D01*
X99446Y462545D01*
X97148Y464308D01*
X94472Y465417D01*
X91600Y465795D01*
D02*
G37*
G36*
X38800Y429923D02*
Y422100D01*
X46623D01*
X46543Y422710D01*
X45535Y425143D01*
X43932Y427232D01*
X41844Y428835D01*
X39411Y429843D01*
X38800Y429923D01*
D02*
G37*
G36*
X34801Y429923D02*
X34190Y429843D01*
X31757Y428835D01*
X29668Y427232D01*
X28066Y425143D01*
X27058Y422710D01*
X26977Y422100D01*
X34801D01*
Y429923D01*
D02*
G37*
G36*
X46623Y418100D02*
X38800D01*
Y410277D01*
X39411Y410357D01*
X41844Y411365D01*
X43932Y412968D01*
X45535Y415057D01*
X46543Y417490D01*
X46623Y418100D01*
D02*
G37*
G36*
X34801D02*
X26978D01*
X27058Y417490D01*
X28066Y415057D01*
X29668Y412968D01*
X31757Y411365D01*
X34190Y410357D01*
X34801Y410277D01*
Y418100D01*
D02*
G37*
G36*
X129001Y412994D02*
X126129Y412617D01*
X123453Y411508D01*
X121155Y409745D01*
X119392Y407447D01*
X118284Y404771D01*
X117906Y401900D01*
X118284Y399028D01*
X119392Y396352D01*
X121155Y394054D01*
X123453Y392291D01*
X126129Y391183D01*
X129001Y390805D01*
X131872Y391183D01*
X134548Y392291D01*
X136846Y394054D01*
X138609Y396352D01*
X139718Y399028D01*
X140096Y401900D01*
X139718Y404771D01*
X138609Y407447D01*
X136846Y409745D01*
X134548Y411508D01*
X131872Y412617D01*
X129001Y412994D01*
D02*
G37*
G36*
X103601D02*
X100729Y412617D01*
X98053Y411508D01*
X95755Y409745D01*
X93992Y407447D01*
X92884Y404771D01*
X92506Y401900D01*
X92884Y399028D01*
X93992Y396352D01*
X95755Y394054D01*
X98053Y392291D01*
X100729Y391183D01*
X103601Y390805D01*
X106472Y391183D01*
X109148Y392291D01*
X111446Y394054D01*
X113209Y396352D01*
X114318Y399028D01*
X114696Y401900D01*
X114318Y404771D01*
X113209Y407447D01*
X111446Y409745D01*
X109148Y411508D01*
X106472Y412617D01*
X103601Y412994D01*
D02*
G37*
G36*
X78201D02*
X75329Y412617D01*
X72653Y411508D01*
X70355Y409745D01*
X68592Y407447D01*
X67484Y404771D01*
X67106Y401900D01*
X67484Y399028D01*
X68592Y396352D01*
X70355Y394054D01*
X72653Y392291D01*
X75329Y391183D01*
X78201Y390805D01*
X81072Y391183D01*
X83748Y392291D01*
X86046Y394054D01*
X87809Y396352D01*
X88918Y399028D01*
X89296Y401900D01*
X88918Y404771D01*
X87809Y407447D01*
X86046Y409745D01*
X83748Y411508D01*
X81072Y412617D01*
X78201Y412994D01*
D02*
G37*
G36*
X36800Y405795D02*
X33929Y405417D01*
X31253Y404309D01*
X28955Y402545D01*
X27192Y400247D01*
X26084Y397572D01*
X25705Y394700D01*
X26084Y391828D01*
X27192Y389153D01*
X28955Y386855D01*
X31253Y385092D01*
X33929Y383983D01*
X36800Y383605D01*
X39672Y383983D01*
X42348Y385092D01*
X44646Y386855D01*
X46409Y389153D01*
X47517Y391828D01*
X47895Y394700D01*
X47517Y397572D01*
X46409Y400247D01*
X44646Y402545D01*
X42348Y404309D01*
X39672Y405417D01*
X36800Y405795D01*
D02*
G37*
G36*
Y380395D02*
X33929Y380017D01*
X31253Y378909D01*
X28955Y377145D01*
X27192Y374847D01*
X26084Y372172D01*
X25705Y369300D01*
X26084Y366428D01*
X27192Y363753D01*
X28955Y361455D01*
X31253Y359692D01*
X33929Y358583D01*
X36800Y358205D01*
X39672Y358583D01*
X42348Y359692D01*
X44646Y361455D01*
X46409Y363753D01*
X47517Y366428D01*
X47895Y369300D01*
X47517Y372172D01*
X46409Y374847D01*
X44646Y377145D01*
X42348Y378909D01*
X39672Y380017D01*
X36800Y380395D01*
D02*
G37*
G36*
X38800Y353723D02*
Y345900D01*
X46623D01*
X46543Y346511D01*
X45535Y348943D01*
X43932Y351032D01*
X41844Y352635D01*
X39411Y353643D01*
X38800Y353723D01*
D02*
G37*
G36*
X34801Y353723D02*
X34190Y353643D01*
X31757Y352635D01*
X29668Y351032D01*
X28066Y348943D01*
X27058Y346511D01*
X26977Y345900D01*
X34801D01*
Y353723D01*
D02*
G37*
G36*
X46623Y341900D02*
X38800D01*
Y334077D01*
X39411Y334157D01*
X41844Y335165D01*
X43932Y336768D01*
X45535Y338857D01*
X46543Y341289D01*
X46623Y341900D01*
D02*
G37*
G36*
X34801D02*
X26978D01*
X27058Y341289D01*
X28066Y338857D01*
X29668Y336768D01*
X31757Y335165D01*
X34190Y334157D01*
X34801Y334077D01*
Y341900D01*
D02*
G37*
G36*
X36800Y329595D02*
X33929Y329217D01*
X31253Y328108D01*
X28955Y326345D01*
X27192Y324048D01*
X26084Y321372D01*
X25705Y318500D01*
X26084Y315629D01*
X27192Y312953D01*
X28955Y310655D01*
X31253Y308892D01*
X33929Y307783D01*
X36800Y307405D01*
X39672Y307783D01*
X42348Y308892D01*
X44646Y310655D01*
X46409Y312953D01*
X47517Y315629D01*
X47895Y318500D01*
X47517Y321372D01*
X46409Y324048D01*
X44646Y326345D01*
X42348Y328108D01*
X39672Y329217D01*
X36800Y329595D01*
D02*
G37*
G36*
Y304195D02*
X33929Y303817D01*
X31253Y302708D01*
X28955Y300945D01*
X27192Y298647D01*
X26084Y295972D01*
X25705Y293100D01*
X26084Y290229D01*
X27192Y287553D01*
X28955Y285255D01*
X31253Y283492D01*
X33929Y282383D01*
X36800Y282005D01*
X39672Y282383D01*
X42348Y283492D01*
X44646Y285255D01*
X46409Y287553D01*
X47517Y290229D01*
X47895Y293100D01*
X47517Y295972D01*
X46409Y298647D01*
X44646Y300945D01*
X42348Y302708D01*
X39672Y303817D01*
X36800Y304195D01*
D02*
G37*
G36*
X75250Y296578D02*
X72901Y296268D01*
X70711Y295361D01*
X68831Y293919D01*
X67389Y292039D01*
X66482Y289849D01*
X66173Y287500D01*
X66482Y285151D01*
X67389Y282961D01*
X68831Y281081D01*
X70711Y279639D01*
X72901Y278732D01*
X75250Y278422D01*
X77600Y278732D01*
X79789Y279639D01*
X81669Y281081D01*
X83112Y282961D01*
X84019Y285151D01*
X84328Y287500D01*
X84019Y289849D01*
X83112Y292039D01*
X81669Y293919D01*
X79789Y295361D01*
X77600Y296268D01*
X75250Y296578D01*
D02*
G37*
G36*
Y327313D02*
X73358Y327063D01*
X71594Y326333D01*
X70079Y325171D01*
X68917Y323656D01*
X68187Y321893D01*
X67938Y320000D01*
X68187Y318107D01*
X68917Y316344D01*
X70079Y314829D01*
X71594Y313667D01*
X73358Y312937D01*
X75250Y312687D01*
X75341Y312699D01*
X86902Y301139D01*
Y279112D01*
X85091Y277301D01*
X85000Y277313D01*
X83107Y277063D01*
X81344Y276333D01*
X79829Y275171D01*
X78667Y273656D01*
X77937Y271893D01*
X77687Y270000D01*
X77937Y268107D01*
X78667Y266344D01*
X79829Y264829D01*
X79902Y264773D01*
Y256000D01*
X80290Y254049D01*
X81395Y252395D01*
X89402Y244388D01*
Y216755D01*
X89000Y214813D01*
X87107Y214563D01*
X85344Y213833D01*
X83829Y212671D01*
X83529Y212280D01*
X81900Y211526D01*
X80904Y212006D01*
X79789Y212861D01*
X77600Y213768D01*
X75250Y214078D01*
X72901Y213768D01*
X70711Y212861D01*
X68831Y211419D01*
X67389Y209539D01*
X66482Y207349D01*
X66173Y205000D01*
X66482Y202651D01*
X67389Y200461D01*
X68831Y198581D01*
X70711Y197139D01*
X72901Y196232D01*
X75250Y195922D01*
X77600Y196232D01*
X79789Y197139D01*
X81669Y198581D01*
X83062Y200397D01*
X83479Y200842D01*
X84801Y201196D01*
X85536Y201087D01*
X87107Y200437D01*
X89000Y200187D01*
X90893Y200437D01*
X92656Y201167D01*
X94171Y202329D01*
X95333Y203844D01*
X96063Y205607D01*
X96313Y207500D01*
X96301Y207591D01*
X98105Y209395D01*
X99210Y211049D01*
X99598Y213000D01*
Y246500D01*
X99210Y248451D01*
X98105Y250105D01*
X90098Y258112D01*
Y264773D01*
X90171Y264829D01*
X91333Y266344D01*
X92063Y268107D01*
X92313Y270000D01*
X92301Y270091D01*
X95605Y273395D01*
X96710Y275049D01*
X97098Y277000D01*
Y303250D01*
X96710Y305201D01*
X95605Y306855D01*
X82551Y319909D01*
X82563Y320000D01*
X82314Y321893D01*
X81583Y323656D01*
X80421Y325171D01*
X78907Y326333D01*
X77143Y327063D01*
X75250Y327313D01*
D02*
G37*
G36*
X36800Y278795D02*
X33929Y278417D01*
X31253Y277309D01*
X28955Y275545D01*
X27192Y273248D01*
X26084Y270572D01*
X25705Y267700D01*
X26084Y264828D01*
X27192Y262153D01*
X28955Y259855D01*
X31253Y258092D01*
X33929Y256983D01*
X36800Y256605D01*
X39672Y256983D01*
X42348Y258092D01*
X44646Y259855D01*
X46409Y262153D01*
X47517Y264828D01*
X47895Y267700D01*
X47517Y270572D01*
X46409Y273248D01*
X44646Y275545D01*
X42348Y277309D01*
X39672Y278417D01*
X36800Y278795D01*
D02*
G37*
G36*
X38800Y252123D02*
Y244300D01*
X46623D01*
X46543Y244911D01*
X45535Y247343D01*
X43932Y249432D01*
X41844Y251035D01*
X39411Y252043D01*
X38800Y252123D01*
D02*
G37*
G36*
X34801Y252123D02*
X34190Y252043D01*
X31757Y251035D01*
X29668Y249432D01*
X28066Y247343D01*
X27058Y244911D01*
X26977Y244300D01*
X34801D01*
Y252123D01*
D02*
G37*
G36*
X46623Y240300D02*
X38800D01*
Y232477D01*
X39411Y232557D01*
X41844Y233565D01*
X43932Y235168D01*
X45535Y237257D01*
X46543Y239690D01*
X46623Y240300D01*
D02*
G37*
G36*
X34801D02*
X26978D01*
X27058Y239690D01*
X28066Y237257D01*
X29668Y235168D01*
X31757Y233565D01*
X34190Y232557D01*
X34801Y232477D01*
Y240300D01*
D02*
G37*
G36*
X75250Y249078D02*
X72901Y248768D01*
X70711Y247861D01*
X68831Y246419D01*
X67389Y244539D01*
X66482Y242349D01*
X66173Y240000D01*
X66482Y237651D01*
X67389Y235461D01*
X68831Y233581D01*
X70711Y232139D01*
X72901Y231232D01*
X75250Y230922D01*
X77600Y231232D01*
X79789Y232139D01*
X81669Y233581D01*
X83112Y235461D01*
X84019Y237651D01*
X84328Y240000D01*
X84019Y242349D01*
X83112Y244539D01*
X81669Y246419D01*
X79789Y247861D01*
X77600Y248768D01*
X75250Y249078D01*
D02*
G37*
G36*
X36800Y227995D02*
X33929Y227617D01*
X31253Y226509D01*
X28955Y224745D01*
X27192Y222447D01*
X26084Y219772D01*
X25705Y216900D01*
X26084Y214028D01*
X27192Y211353D01*
X28955Y209055D01*
X31253Y207292D01*
X33929Y206183D01*
X36800Y205805D01*
X39672Y206183D01*
X42348Y207292D01*
X44646Y209055D01*
X46409Y211353D01*
X47517Y214028D01*
X47895Y216900D01*
X47517Y219772D01*
X46409Y222447D01*
X44646Y224745D01*
X42348Y226509D01*
X39672Y227617D01*
X36800Y227995D01*
D02*
G37*
G36*
Y202595D02*
X33929Y202217D01*
X31253Y201108D01*
X28955Y199345D01*
X27192Y197048D01*
X26084Y194372D01*
X25705Y191500D01*
X26084Y188629D01*
X27192Y185953D01*
X28955Y183655D01*
X31253Y181892D01*
X33929Y180783D01*
X36800Y180405D01*
X39672Y180783D01*
X42348Y181892D01*
X44646Y183655D01*
X46409Y185953D01*
X47517Y188629D01*
X47895Y191500D01*
X47517Y194372D01*
X46409Y197048D01*
X44646Y199345D01*
X42348Y201108D01*
X39672Y202217D01*
X36800Y202595D01*
D02*
G37*
G36*
Y177195D02*
X33929Y176817D01*
X31253Y175709D01*
X28955Y173945D01*
X27192Y171647D01*
X26084Y168972D01*
X25705Y166100D01*
X26084Y163228D01*
X27192Y160553D01*
X28955Y158255D01*
X31253Y156492D01*
X33929Y155383D01*
X36800Y155005D01*
X39672Y155383D01*
X42348Y156492D01*
X44646Y158255D01*
X46409Y160553D01*
X47517Y163228D01*
X47895Y166100D01*
X47517Y168972D01*
X46409Y171647D01*
X44646Y173945D01*
X42348Y175709D01*
X39672Y176817D01*
X36800Y177195D01*
D02*
G37*
G36*
X38800Y150523D02*
Y142700D01*
X46623D01*
X46543Y143310D01*
X45535Y145743D01*
X43932Y147832D01*
X41844Y149435D01*
X39411Y150443D01*
X38800Y150523D01*
D02*
G37*
G36*
X34801Y150523D02*
X34190Y150443D01*
X31757Y149435D01*
X29668Y147832D01*
X28066Y145743D01*
X27058Y143310D01*
X26977Y142700D01*
X34801D01*
Y150523D01*
D02*
G37*
G36*
X46623Y138700D02*
X38800D01*
Y130877D01*
X39411Y130957D01*
X41844Y131965D01*
X43932Y133568D01*
X45535Y135657D01*
X46543Y138090D01*
X46623Y138700D01*
D02*
G37*
G36*
X34801D02*
X26978D01*
X27058Y138090D01*
X28066Y135657D01*
X29668Y133568D01*
X31757Y131965D01*
X34190Y130957D01*
X34801Y130877D01*
Y138700D01*
D02*
G37*
G36*
X36800Y126395D02*
X33929Y126017D01*
X31253Y124909D01*
X28955Y123145D01*
X27192Y120848D01*
X26084Y118172D01*
X25705Y115300D01*
X26084Y112429D01*
X27192Y109753D01*
X28955Y107455D01*
X31253Y105692D01*
X33929Y104583D01*
X36800Y104205D01*
X39672Y104583D01*
X42348Y105692D01*
X44646Y107455D01*
X46409Y109753D01*
X47517Y112429D01*
X47895Y115300D01*
X47517Y118172D01*
X46409Y120848D01*
X44646Y123145D01*
X42348Y124909D01*
X39672Y126017D01*
X36800Y126395D01*
D02*
G37*
G36*
Y100995D02*
X33929Y100617D01*
X31253Y99508D01*
X28955Y97745D01*
X27192Y95448D01*
X26084Y92772D01*
X25705Y89900D01*
X26084Y87029D01*
X27192Y84353D01*
X28955Y82055D01*
X31253Y80292D01*
X33929Y79183D01*
X36800Y78805D01*
X39672Y79183D01*
X42348Y80292D01*
X44646Y82055D01*
X46409Y84353D01*
X47517Y87029D01*
X47895Y89900D01*
X47517Y92772D01*
X46409Y95448D01*
X44646Y97745D01*
X42348Y99508D01*
X39672Y100617D01*
X36800Y100995D01*
D02*
G37*
%LPD*%
D11*
X940003Y582496D02*
X942502Y584995D01*
X947501D01*
X950000Y582496D01*
Y579997D01*
X947501Y577498D01*
X942502D01*
X940003Y574998D01*
Y572499D01*
X942502Y570000D01*
X947501D01*
X950000Y572499D01*
X935005Y584995D02*
X925008D01*
X930006D01*
Y570000D01*
X910013D02*
X920010D01*
X910013Y579997D01*
Y582496D01*
X912512Y584995D01*
X917511D01*
X920010Y582496D01*
X895018Y584995D02*
X905015D01*
Y577498D01*
X900016Y579997D01*
X897517D01*
X895018Y577498D01*
Y572499D01*
X897517Y570000D01*
X902515D01*
X905015Y572499D01*
X890019Y584995D02*
Y570000D01*
X882522D01*
X880023Y572499D01*
Y582496D01*
X882522Y584995D01*
X890019D01*
X875024D02*
Y574998D01*
X870026Y570000D01*
X865027Y574998D01*
Y584995D01*
X850032Y582496D02*
X852532Y584995D01*
X857530D01*
X860029Y582496D01*
Y572499D01*
X857530Y570000D01*
X852532D01*
X850032Y572499D01*
X820042Y584995D02*
X830039D01*
Y570000D01*
X820042D01*
X830039Y577498D02*
X825041D01*
X815044Y584995D02*
Y574998D01*
X810045Y570000D01*
X805047Y574998D01*
Y584995D01*
X792551D02*
X797549D01*
X800049Y582496D01*
Y572499D01*
X797549Y570000D01*
X792551D01*
X790052Y572499D01*
Y582496D01*
X792551Y584995D01*
X770058D02*
Y570000D01*
X762561D01*
X760061Y572499D01*
Y582496D01*
X762561Y584995D01*
X770058D01*
X755063D02*
X750065D01*
X752564D01*
Y570000D01*
X755063D01*
X750065D01*
X732570Y582496D02*
X735070Y584995D01*
X740068D01*
X742567Y582496D01*
Y579997D01*
X740068Y577498D01*
X735070D01*
X732570Y574998D01*
Y572499D01*
X735070Y570000D01*
X740068D01*
X742567Y572499D01*
X717575Y582496D02*
X720074Y584995D01*
X725073D01*
X727572Y582496D01*
Y572499D01*
X725073Y570000D01*
X720074D01*
X717575Y572499D01*
X705079Y584995D02*
X710078D01*
X712577Y582496D01*
Y572499D01*
X710078Y570000D01*
X705079D01*
X702580Y572499D01*
Y582496D01*
X705079Y584995D01*
X697582D02*
Y574998D01*
X692583Y570000D01*
X687585Y574998D01*
Y584995D01*
X672590D02*
X682587D01*
Y570000D01*
X672590D01*
X682587Y577498D02*
X677588D01*
X667591Y570000D02*
Y584995D01*
X660094D01*
X657595Y582496D01*
Y577498D01*
X660094Y574998D01*
X667591D01*
X662593D02*
X657595Y570000D01*
X652596Y584995D02*
Y582496D01*
X647598Y577498D01*
X642600Y582496D01*
Y584995D01*
X647598Y577498D02*
Y570000D01*
X622606D02*
Y579997D01*
X617608Y584995D01*
X612609Y579997D01*
Y570000D01*
Y577498D01*
X622606D01*
X607611Y570000D02*
Y584995D01*
X597614Y570000D01*
Y584995D01*
X592616D02*
X582619D01*
X587617D01*
Y570000D01*
X552629Y582496D02*
X555128Y584995D01*
X560126D01*
X562625Y582496D01*
Y572499D01*
X560126Y570000D01*
X555128D01*
X552629Y572499D01*
X547630Y582496D02*
X545131Y584995D01*
X540133D01*
X537634Y582496D01*
Y579997D01*
X540133Y577498D01*
X542632D01*
X540133D01*
X537634Y574998D01*
Y572499D01*
X540133Y570000D01*
X545131D01*
X547630Y572499D01*
X517640Y577498D02*
X507643D01*
X487650Y570000D02*
Y584995D01*
X482651Y579997D01*
X477653Y584995D01*
Y570000D01*
X472655Y584995D02*
Y570000D01*
X465157D01*
X462658Y572499D01*
Y574998D01*
X465157Y577498D01*
X472655D01*
X465157D01*
X462658Y579997D01*
Y582496D01*
X465157Y584995D01*
X472655D01*
X457659Y570000D02*
X452661D01*
X455160D01*
Y584995D01*
X457659Y582496D01*
X445163Y584995D02*
X435167D01*
Y582496D01*
X445163Y572499D01*
Y570000D01*
X422671D02*
Y584995D01*
X430168Y577498D01*
X420172D01*
X407676Y570000D02*
Y584995D01*
X415173Y577498D01*
X405176D01*
X400178D02*
X390181D01*
X385183Y570000D02*
Y579997D01*
X380185Y584995D01*
X375186Y579997D01*
Y570000D01*
Y577498D01*
X385183D01*
X320000D02*
X310003D01*
X290010Y584995D02*
Y570000D01*
X282512D01*
X280013Y572499D01*
Y574998D01*
X282512Y577498D01*
X290010D01*
X282512D01*
X280013Y579997D01*
Y582496D01*
X282512Y584995D01*
X290010D01*
X267517D02*
X272515D01*
X275015Y582496D01*
Y572499D01*
X272515Y570000D01*
X267517D01*
X265018Y572499D01*
Y582496D01*
X267517Y584995D01*
X260019D02*
X250023D01*
X255021D01*
Y570000D01*
X245024Y584995D02*
X235028D01*
X240026D01*
Y570000D01*
X222532Y584995D02*
X227530D01*
X230029Y582496D01*
Y572499D01*
X227530Y570000D01*
X222532D01*
X220032Y572499D01*
Y582496D01*
X222532Y584995D01*
X215034Y570000D02*
Y584995D01*
X210036Y579997D01*
X205037Y584995D01*
Y570000D01*
X185044Y584995D02*
Y570000D01*
X175047D01*
X170049D02*
Y579997D01*
X165050Y584995D01*
X160052Y579997D01*
Y570000D01*
Y577498D01*
X170049D01*
X155053Y584995D02*
Y582496D01*
X150055Y577498D01*
X145057Y582496D01*
Y584995D01*
X150055Y577498D02*
Y570000D01*
X130062Y584995D02*
X140058D01*
Y570000D01*
X130062D01*
X140058Y577498D02*
X135060D01*
X125063Y570000D02*
Y584995D01*
X117566D01*
X115066Y582496D01*
Y577498D01*
X117566Y574998D01*
X125063D01*
X120065D02*
X115066Y570000D01*
X95073Y577498D02*
X85076D01*
D32*
X89000Y207500D02*
X94500Y213000D01*
X85000Y256000D02*
X94500Y246500D01*
Y213000D02*
Y246500D01*
X75250Y320000D02*
X92000Y303250D01*
X85000Y270000D02*
X92000Y277000D01*
Y303250D01*
X85000Y256000D02*
Y270000D01*
X263000Y248995D02*
X352410D01*
D33*
X106600Y218500D02*
X107000Y218100D01*
X145800Y344700D02*
X164700D01*
X11000Y141500D02*
X11800Y140700D01*
X36800D01*
X73000Y369500D02*
Y369500D01*
X78500Y375000D01*
X166200Y374700D02*
X166500Y375000D01*
X145800Y374700D02*
X166200D01*
X164700Y344700D02*
X166500Y346500D01*
D34*
X70500Y68000D02*
Y75101D01*
X64601Y81000D02*
X70500Y75101D01*
X117500Y224000D02*
X134550Y206950D01*
X174207D01*
X188000Y220742D01*
X117500Y224000D02*
Y324250D01*
X10950Y109500D02*
X11000D01*
X154250Y399750D02*
X155000Y400500D01*
X123900Y430100D02*
X154250Y399750D01*
X166500Y387500D01*
X11000Y69000D02*
Y109500D01*
Y141500D01*
X62000Y430100D02*
X123900D01*
X62500Y380000D02*
X73000Y369500D01*
X73000D02*
X82801Y359700D01*
X114350Y327400D02*
X117500Y324250D01*
X102500Y339250D02*
X114350Y327400D01*
X102500Y339250D02*
Y341300D01*
X84101Y359700D02*
X102500Y341300D01*
X73000Y369500D02*
X73000D01*
X62000Y420100D02*
Y430100D01*
Y408000D02*
Y420100D01*
X11000Y141500D02*
Y240500D01*
X62500Y380000D02*
Y407500D01*
X36800Y420100D02*
X62000D01*
Y408000D02*
X62500Y407500D01*
X166500Y375000D02*
Y387500D01*
Y346500D02*
Y375000D01*
X26200Y242300D02*
X36800D01*
X13500Y255000D02*
Y339000D01*
X18400Y343900D02*
X36800D01*
X13500Y339000D02*
X18400Y343900D01*
X13500Y339000D02*
Y415000D01*
X18600Y420100D01*
X36800D01*
X11000Y240500D02*
X19500Y249000D01*
X13500Y255000D02*
X19500Y249000D01*
X26200Y242300D01*
X11000Y69000D02*
X52601D01*
X64601Y81000D01*
X82801Y359700D02*
X84101D01*
D37*
X36800Y89900D02*
D03*
Y115300D02*
D03*
Y140700D02*
D03*
Y166100D02*
D03*
Y191500D02*
D03*
Y216900D02*
D03*
Y242300D02*
D03*
Y267700D02*
D03*
Y293100D02*
D03*
Y318500D02*
D03*
Y343900D02*
D03*
Y369300D02*
D03*
Y394700D02*
D03*
Y420100D02*
D03*
X117000Y454700D02*
D03*
X91600D02*
D03*
X129001Y401900D02*
D03*
X103601D02*
D03*
X78201D02*
D03*
D38*
X75250Y205000D02*
D03*
Y240000D02*
D03*
Y287500D02*
D03*
D39*
X86000Y333000D02*
D03*
X151000Y38000D02*
D03*
X114000Y9500D02*
D03*
X190000Y26000D02*
D03*
Y96000D02*
D03*
X70500Y68000D02*
D03*
X154000Y219500D02*
D03*
X137000Y251500D02*
D03*
X102500Y289000D02*
D03*
X149000Y302500D02*
D03*
X64000Y325500D02*
D03*
X64500Y297500D02*
D03*
Y261500D02*
D03*
X71500Y224000D02*
D03*
X263000Y248995D02*
D03*
X75250Y320000D02*
D03*
X85000Y270000D02*
D03*
X171000Y274000D02*
D03*
X145800Y344700D02*
D03*
X352410Y248995D02*
D03*
X102500Y468500D02*
D03*
X95500Y98500D02*
D03*
X123500Y67000D02*
D03*
X114000Y361000D02*
D03*
X104000Y425500D02*
D03*
X48000Y381500D02*
D03*
X118000Y125500D02*
D03*
X61500Y177000D02*
D03*
X145500Y96500D02*
D03*
X125500Y188500D02*
D03*
X143500Y160000D02*
D03*
X155000Y400500D02*
D03*
X143000Y499000D02*
D03*
X78500Y375000D02*
D03*
X145800Y374700D02*
D03*
X158500Y9500D02*
D03*
X54000Y12000D02*
D03*
X11500Y54000D02*
D03*
X48000Y498500D02*
D03*
X12500Y447500D02*
D03*
X91500Y498500D02*
D03*
X58500Y447500D02*
D03*
X137000Y437000D02*
D03*
X179000Y447500D02*
D03*
X183000Y378500D02*
D03*
X171000Y66000D02*
D03*
X168000Y124000D02*
D03*
X70000Y126500D02*
D03*
X96500Y35500D02*
D03*
X102000Y160000D02*
D03*
X175500Y330300D02*
D03*
X188000Y220742D02*
D03*
X187700Y291658D02*
D03*
X168000Y186000D02*
D03*
X190000Y158000D02*
D03*
X107000Y218100D02*
D03*
X89000Y207500D02*
D03*
X74500Y351500D02*
D03*
X114350Y327400D02*
D03*
X53250Y220700D02*
D03*
X57500Y199500D02*
D03*
X10950Y109500D02*
D03*
M02*
