G04*
G04 #@! TF.GenerationSoftware,Altium Limited,Altium Designer,20.2.4 (192)*
G04*
G04 Layer_Color=65280*
%FSLAX44Y44*%
%MOMM*%
G71*
G04*
G04 #@! TF.SameCoordinates,9262D3F7-DFB6-46AD-8F0E-08546F4AC646*
G04*
G04*
G04 #@! TF.FilePolarity,Negative*
G04*
G01*
G75*
%ADD11C,0.2000*%
%ADD22C,0.5000*%
%ADD23R,0.7096X0.5318*%
%ADD24R,1.1414X0.9890*%
%ADD25R,2.0050X0.7350*%
%ADD26R,0.5318X0.7096*%
%ADD27R,0.9890X1.1414*%
%ADD28C,1.7000*%
%ADD29C,1.3000*%
%ADD30C,0.5000*%
G36*
X37000Y27200D02*
Y25528D01*
X36135Y22298D01*
X34463Y19402D01*
X32098Y17037D01*
X29202Y15365D01*
X25972Y14500D01*
X22628D01*
X19398Y15365D01*
X16502Y17037D01*
X14138Y19402D01*
X12466Y22298D01*
X11600Y25528D01*
Y27200D01*
Y28872D01*
X12466Y32102D01*
X14138Y34998D01*
X16502Y37362D01*
X19398Y39034D01*
X22628Y39900D01*
X25972D01*
X29202Y39034D01*
X32098Y37362D01*
X34463Y34998D01*
X36135Y32102D01*
X37000Y28872D01*
Y27200D01*
D01*
D02*
G37*
G36*
X180781Y475719D02*
X179598Y474537D01*
X176702Y472865D01*
X173472Y472000D01*
X170128D01*
X166898Y472865D01*
X164002Y474537D01*
X161638Y476902D01*
X159966Y479798D01*
X159100Y483028D01*
Y486372D01*
X159966Y489602D01*
X161638Y492498D01*
X162820Y493680D01*
X164002Y494862D01*
X166898Y496534D01*
X170128Y497400D01*
X173472D01*
X176702Y496534D01*
X179598Y494862D01*
X181963Y492498D01*
X183635Y489602D01*
X184500Y486372D01*
Y483028D01*
X183635Y479798D01*
X181963Y476902D01*
X180781Y475719D01*
D01*
D02*
G37*
D11*
X29997Y582496D02*
X27498Y584995D01*
X22499D01*
X20000Y582496D01*
Y579997D01*
X22499Y577498D01*
X27498D01*
X29997Y574998D01*
Y572499D01*
X27498Y570000D01*
X22499D01*
X20000Y572499D01*
X34995Y584995D02*
X44992D01*
X39994D01*
Y570000D01*
X59987D02*
X49990D01*
X59987Y579997D01*
Y582496D01*
X57488Y584995D01*
X52490D01*
X49990Y582496D01*
X74982Y584995D02*
X64985D01*
Y577498D01*
X69984Y579997D01*
X72483D01*
X74982Y577498D01*
Y572499D01*
X72483Y570000D01*
X67485D01*
X64985Y572499D01*
X79981Y584995D02*
Y570000D01*
X87478D01*
X89977Y572499D01*
Y582496D01*
X87478Y584995D01*
X79981D01*
X94976D02*
Y574998D01*
X99974Y570000D01*
X104972Y574998D01*
Y584995D01*
X119968Y582496D02*
X117469Y584995D01*
X112470D01*
X109971Y582496D01*
Y572499D01*
X112470Y570000D01*
X117469D01*
X119968Y572499D01*
X149958Y584995D02*
X139961D01*
Y570000D01*
X149958D01*
X139961Y577498D02*
X144960D01*
X154956Y584995D02*
Y574998D01*
X159955Y570000D01*
X164953Y574998D01*
Y584995D01*
X177449D02*
X172451D01*
X169951Y582496D01*
Y572499D01*
X172451Y570000D01*
X177449D01*
X179948Y572499D01*
Y582496D01*
X177449Y584995D01*
X199942D02*
Y570000D01*
X207439D01*
X209939Y572499D01*
Y582496D01*
X207439Y584995D01*
X199942D01*
X214937D02*
X219935D01*
X217436D01*
Y570000D01*
X214937D01*
X219935D01*
X237430Y582496D02*
X234930Y584995D01*
X229932D01*
X227433Y582496D01*
Y579997D01*
X229932Y577498D01*
X234930D01*
X237430Y574998D01*
Y572499D01*
X234930Y570000D01*
X229932D01*
X227433Y572499D01*
X252425Y582496D02*
X249926Y584995D01*
X244927D01*
X242428Y582496D01*
Y572499D01*
X244927Y570000D01*
X249926D01*
X252425Y572499D01*
X264921Y584995D02*
X259922D01*
X257423Y582496D01*
Y572499D01*
X259922Y570000D01*
X264921D01*
X267420Y572499D01*
Y582496D01*
X264921Y584995D01*
X272418D02*
Y574998D01*
X277417Y570000D01*
X282415Y574998D01*
Y584995D01*
X297410D02*
X287413D01*
Y570000D01*
X297410D01*
X287413Y577498D02*
X292412D01*
X302409Y570000D02*
Y584995D01*
X309906D01*
X312405Y582496D01*
Y577498D01*
X309906Y574998D01*
X302409D01*
X307407D02*
X312405Y570000D01*
X317404Y584995D02*
Y582496D01*
X322402Y577498D01*
X327401Y582496D01*
Y584995D01*
X322402Y577498D02*
Y570000D01*
X347394D02*
Y579997D01*
X352392Y584995D01*
X357391Y579997D01*
Y570000D01*
Y577498D01*
X347394D01*
X362389Y570000D02*
Y584995D01*
X372386Y570000D01*
Y584995D01*
X377384D02*
X387381D01*
X382383D01*
Y570000D01*
X417371Y582496D02*
X414872Y584995D01*
X409874D01*
X407375Y582496D01*
Y572499D01*
X409874Y570000D01*
X414872D01*
X417371Y572499D01*
X422370Y582496D02*
X424869Y584995D01*
X429867D01*
X432366Y582496D01*
Y579997D01*
X429867Y577498D01*
X427368D01*
X429867D01*
X432366Y574998D01*
Y572499D01*
X429867Y570000D01*
X424869D01*
X422370Y572499D01*
X452360Y577498D02*
X462357D01*
X482350Y570000D02*
Y584995D01*
X487349Y579997D01*
X492347Y584995D01*
Y570000D01*
X497346Y584995D02*
Y570000D01*
X504843D01*
X507342Y572499D01*
Y574998D01*
X504843Y577498D01*
X497346D01*
X504843D01*
X507342Y579997D01*
Y582496D01*
X504843Y584995D01*
X497346D01*
X512341Y570000D02*
X517339D01*
X514840D01*
Y584995D01*
X512341Y582496D01*
X524837Y584995D02*
X534833D01*
Y582496D01*
X524837Y572499D01*
Y570000D01*
X547329D02*
Y584995D01*
X539832Y577498D01*
X549828D01*
X562324Y570000D02*
Y584995D01*
X554827Y577498D01*
X564824D01*
X569822D02*
X579819D01*
X584817Y570000D02*
Y579997D01*
X589815Y584995D01*
X594814Y579997D01*
Y570000D01*
Y577498D01*
X584817D01*
X630000D02*
X639997D01*
X659990Y584995D02*
X669987D01*
X664989D01*
Y570000D01*
X682483Y584995D02*
X677485D01*
X674986Y582496D01*
Y572499D01*
X677485Y570000D01*
X682483D01*
X684982Y572499D01*
Y582496D01*
X682483Y584995D01*
X689981Y570000D02*
Y584995D01*
X697478D01*
X699977Y582496D01*
Y577498D01*
X697478Y574998D01*
X689981D01*
X729968Y582496D02*
X727468Y584995D01*
X722470D01*
X719971Y582496D01*
Y579997D01*
X722470Y577498D01*
X727468D01*
X729968Y574998D01*
Y572499D01*
X727468Y570000D01*
X722470D01*
X719971Y572499D01*
X742464Y584995D02*
X737465D01*
X734966Y582496D01*
Y572499D01*
X737465Y570000D01*
X742464D01*
X744963Y572499D01*
Y582496D01*
X742464Y584995D01*
X749961D02*
Y570000D01*
X759958D01*
X764956Y584995D02*
Y570000D01*
X772454D01*
X774953Y572499D01*
Y582496D01*
X772454Y584995D01*
X764956D01*
X789948D02*
X779951D01*
Y570000D01*
X789948D01*
X779951Y577498D02*
X784950D01*
X794947Y570000D02*
Y584995D01*
X802444D01*
X804943Y582496D01*
Y577498D01*
X802444Y574998D01*
X794947D01*
X799945D02*
X804943Y570000D01*
X824937D02*
Y584995D01*
X829935Y579997D01*
X834934Y584995D01*
Y570000D01*
X839932D02*
Y579997D01*
X844930Y584995D01*
X849929Y579997D01*
Y570000D01*
Y577498D01*
X839932D01*
X864924Y582496D02*
X862425Y584995D01*
X857426D01*
X854927Y582496D01*
Y579997D01*
X857426Y577498D01*
X862425D01*
X864924Y574998D01*
Y572499D01*
X862425Y570000D01*
X857426D01*
X854927Y572499D01*
X869922Y584995D02*
Y570000D01*
Y574998D01*
X879919Y584995D01*
X872421Y577498D01*
X879919Y570000D01*
X899913Y577498D02*
X909909D01*
D22*
X0Y0D02*
X0Y510000D01*
X960000Y510000D01*
X960000Y0D01*
X0Y0D02*
X960000Y0D01*
D23*
X173300Y251190D02*
D03*
Y258810D02*
D03*
X126800Y355890D02*
D03*
Y363510D02*
D03*
X75250Y303690D02*
D03*
Y311310D02*
D03*
Y261190D02*
D03*
Y268810D02*
D03*
D24*
X188000Y276716D02*
D03*
Y263000D02*
D03*
Y247000D02*
D03*
Y233284D02*
D03*
D25*
X153201Y235950D02*
D03*
Y248650D02*
D03*
Y261350D02*
D03*
Y274050D02*
D03*
X102401D02*
D03*
Y261350D02*
D03*
Y248650D02*
D03*
Y235950D02*
D03*
D26*
X96310Y217750D02*
D03*
X88690D02*
D03*
X135610Y374700D02*
D03*
X127990D02*
D03*
X135610Y344700D02*
D03*
X127990D02*
D03*
X92990Y359700D02*
D03*
X100610D02*
D03*
X71440Y187500D02*
D03*
X79060D02*
D03*
D27*
X103658Y374700D02*
D03*
X89943D02*
D03*
D28*
X36800Y89900D02*
D03*
Y115300D02*
D03*
Y140700D02*
D03*
Y166100D02*
D03*
Y191500D02*
D03*
Y216900D02*
D03*
Y242300D02*
D03*
Y267700D02*
D03*
Y293100D02*
D03*
Y318500D02*
D03*
Y343900D02*
D03*
Y369300D02*
D03*
Y394700D02*
D03*
Y420100D02*
D03*
X117000Y454700D02*
D03*
X91600D02*
D03*
X129001Y401900D02*
D03*
X103601D02*
D03*
X78201D02*
D03*
D29*
X75250Y205000D02*
D03*
Y240000D02*
D03*
Y287500D02*
D03*
D30*
X86000Y333000D02*
D03*
X151000Y38000D02*
D03*
X114000Y9500D02*
D03*
X190000Y26000D02*
D03*
Y96000D02*
D03*
X70500Y68000D02*
D03*
X154000Y219500D02*
D03*
X137000Y251500D02*
D03*
X102500Y289000D02*
D03*
X149000Y302500D02*
D03*
X64000Y325500D02*
D03*
X64500Y297500D02*
D03*
Y261500D02*
D03*
X71500Y224000D02*
D03*
X263000Y248995D02*
D03*
X75250Y320000D02*
D03*
X85000Y270000D02*
D03*
X171000Y274000D02*
D03*
X145800Y344700D02*
D03*
X352410Y248995D02*
D03*
X102500Y468500D02*
D03*
X95500Y98500D02*
D03*
X123500Y67000D02*
D03*
X114000Y361000D02*
D03*
X104000Y425500D02*
D03*
X48000Y381500D02*
D03*
X118000Y125500D02*
D03*
X61500Y177000D02*
D03*
X145500Y96500D02*
D03*
X125500Y188500D02*
D03*
X143500Y160000D02*
D03*
X155000Y400500D02*
D03*
X143000Y499000D02*
D03*
X78500Y375000D02*
D03*
X145800Y374700D02*
D03*
X158500Y9500D02*
D03*
X54000Y12000D02*
D03*
X11500Y54000D02*
D03*
X48000Y498500D02*
D03*
X12500Y447500D02*
D03*
X91500Y498500D02*
D03*
X58500Y447500D02*
D03*
X137000Y437000D02*
D03*
X179000Y447500D02*
D03*
X183000Y378500D02*
D03*
X171000Y66000D02*
D03*
X168000Y124000D02*
D03*
X70000Y126500D02*
D03*
X96500Y35500D02*
D03*
X102000Y160000D02*
D03*
X175500Y330300D02*
D03*
X188000Y220742D02*
D03*
X187700Y291658D02*
D03*
X168000Y186000D02*
D03*
X190000Y158000D02*
D03*
X107000Y218100D02*
D03*
X89000Y207500D02*
D03*
X74500Y351500D02*
D03*
X114350Y327400D02*
D03*
X53250Y220700D02*
D03*
X57500Y199500D02*
D03*
X10950Y109500D02*
D03*
M02*
